<svg xmlns="http://www.w3.org/2000/svg" width="157" height="36" viewBox="0 0 157 36" fill="none"><path fill-rule="evenodd" clip-rule="evenodd" d="M68.398 19.7908C68.398 19.7908 66.0858 10.309 65.1932 5.99425C64.1791 1.19194 60.2434 0.622859 60.2434 0.622859H47.9913V35.3781H58.0928V11.9367L63.5295 35.3368L73.1441 35.3781L78.3369 12.1804V35.3781H88.0739V0.744735H75.7816C75.7816 0.744735 72.0085 1.64013 71.1159 6.44244C70.2645 10.7563 68.398 19.7908 68.398 19.7908ZM33.9551 0.5H44.0565V35.5H33.9551V0.5ZM10.2631 26.8714V9.29177C10.2631 9.29177 17.6467 9.41365 18.0925 9.41365C19.6347 9.41365 20.8917 10.6344 20.8917 12.0989C20.8917 13.5643 19.5132 14.9069 17.971 14.9069C17.5654 14.9069 14.8063 14.9482 14.8063 14.9482L11.3585 21.5826H18.458C19.8777 21.7044 21.0132 22.8436 21.0132 24.2678C21.0132 25.691 19.7562 26.9127 18.2552 26.9127C17.971 26.9127 10.2631 26.8714 10.2631 26.8714ZM21.6628 35.3368C27.707 35.3368 30.9932 32.0816 30.9932 25.7332C30.9932 22.8849 29.3707 20.0758 27.5454 18.1229C29.6147 16.1286 30.9932 13.6056 30.9932 10.5125C30.9932 4.48947 28.2351 0.664139 22.1909 0.664139H15.3344C8.27517 0.622859 0 0.664139 0 0.664139V35.3368H21.6628ZM102.394 26.8714V9.29177C102.394 9.29177 109.737 9.41365 110.225 9.41365C111.765 9.41365 113.024 10.6344 113.024 12.0989C113.024 13.5643 111.644 14.9069 110.102 14.9069C109.697 14.9069 106.897 14.9482 106.897 14.9482L103.491 21.5826H110.548C112.01 21.7044 113.144 22.8436 113.144 24.2678C113.144 25.691 111.887 26.9127 110.345 26.9127C110.102 26.9127 102.394 26.8714 102.394 26.8714ZM113.795 35.3368C119.838 35.3368 123.083 32.0816 123.083 25.7332C123.083 22.8849 121.501 20.0758 119.676 18.1229C121.743 16.1286 123.123 13.6056 123.123 10.5125C123.123 4.48947 120.366 0.664139 114.321 0.664139H107.424C100.407 0.622859 92.1311 0.664139 92.1311 0.664139V35.3368H113.795ZM141.3 0.5H145.56C151.808 0.5 157 5.66891 157 11.977V24.024C157 30.2908 151.808 35.5 145.56 35.5H137.081C130.833 35.5 125.641 30.2908 125.641 24.024V11.977C125.641 5.66891 130.833 0.5 137.081 0.5H141.3ZM141.057 8.55856H142.8C143.339 8.557 143.872 8.66224 144.37 8.86823C144.868 9.07422 145.321 9.37689 145.702 9.75886C146.083 10.1408 146.384 10.5946 146.59 11.094C146.796 11.5934 146.901 12.1286 146.9 12.6689V22.6401C146.9 24.8781 145.072 26.7505 142.8 26.7505H139.271C137.04 26.7505 135.174 24.8791 135.174 22.6401V12.6689C135.174 10.3896 137.039 8.55856 139.271 8.55856H141.057Z" fill="#62748E"/></svg>