<svg xmlns="http://www.w3.org/2000/svg" width="171" height="54" viewBox="0 0 171 54" fill="none"><path d="M89.0281 15.0205H84.0756L81.2825 19.5812H86.2325L89.0281 15.0205ZM101.875 27.0205C99.2811 27.2366 94.6974 29.5737 92.2008 34.6801C89.7043 39.7865 89.6952 42.9387 89.6952 42.9387C89.6952 42.9387 91.0118 41.4853 93.0302 39.9634C95.0487 38.4415 96.5509 37.9008 96.5509 37.9008C96.5509 37.9008 96.9254 36.0259 97.8576 34.0652C98.7641 32.1578 100.203 30.172 101.982 29.7214C105.59 28.8069 103.862 35.4377 101.213 39.7614C99.7882 42.0852 94.7363 48.7635 90.387 48.7635C86.0378 48.7635 85.1984 44.5407 86.1156 40.5925C87.0321 36.645 88.3006 31.6296 94.646 22.5166C100.991 13.4035 107.86 8.00091 111.835 5.73057C115.918 3.40016 117.582 4.42143 117.582 4.42143C117.582 4.42143 112.37 7.65464 109.404 11.5445C106.569 15.2625 104.877 19.446 106.192 21.4961C107.445 23.4494 111.862 23.4861 116.725 16.4156C121.525 9.43603 120.312 5.28585 120.312 5.28585C120.312 5.28585 120.892 5.09561 121.282 5.04304C123.623 4.72932 125.498 5.35093 128.401 6.8503C131.443 8.42143 134.361 10.9412 138.36 13.003C139.564 11.6747 140.904 10.2637 142.313 8.88701C136.922 6.24455 132.83 2.47817 127.543 2.11689C122.941 1.80316 119.312 3.49194 119.312 3.49194C119.312 3.49194 117.909 1.56703 113.578 2.19532C109.248 2.82444 95.9071 8.44146 84.5562 26.746C74.2933 43.2959 79.129 52.7802 86.5059 52.6717C94.5026 52.5533 102.11 43.5979 104.684 36.2128C107.259 28.8278 104.216 26.8261 101.875 27.0205ZM117.574 11.6421C116.23 14.9412 114.251 17.2466 112.304 19.0072C109.807 21.2658 108.436 21.1899 107.843 20.736C106.293 19.5478 108.372 15.0672 111.981 11.0606C115.575 7.06974 118.669 5.82819 118.669 5.82819C118.669 5.87492 119.183 7.68635 117.574 11.6421ZM162.105 6.83111C158.446 9.20157 153.372 11.3484 148.503 10.8753C147.271 12.1628 145.951 13.6463 144.626 15.2692C153.077 16.9479 160.47 11.6755 164.406 7.18322C166.861 4.38222 168.073 1.88159 168.073 1.88159C168.073 1.88159 165.729 4.48318 162.105 6.83111Z" fill="#62748E"/><path d="M158.107 27.6303H152.899L152.053 28.947C152.053 28.947 150.991 27.0171 149.192 27.0479C146.11 27.1013 143.025 29.471 139.44 33.5811C136.813 36.5924 132.458 43.2966 132.458 43.2966C132.458 43.2966 129.116 48.4822 127.426 48.0759C124.544 47.3825 129.845 36.6449 129.845 36.6449C129.845 36.6449 132.631 34.9119 136.242 31.8523C138.516 29.9265 141.132 27.2774 143.536 24.8218C145.723 22.5882 148.3 19.5552 150.749 16.2328C150.122 16.3329 149.479 16.4005 148.823 16.433C146.627 19.35 144.282 21.9608 142.288 24.0358C139.319 27.1247 136.588 29.652 134.603 31.264C132.702 32.8076 131.482 33.5027 131.482 33.5027C131.482 33.5027 135.109 26.0008 141.156 17.7121C147.202 9.42425 155.668 1.72463 155.004 5.37753C154.814 6.42634 154.167 7.93072 153.19 9.71628C153.878 9.57193 154.546 9.39171 155.19 9.18645C156.647 6.1585 157.143 3.66288 156.056 2.94198C151.62 -2.98023e-05 140.336 12.1735 134.679 19.244C129.023 26.3145 123.904 37.1197 123.904 37.1197C123.904 37.1197 123.019 37.4935 122.041 37.6804C121.424 37.7989 121.16 37.773 121.059 37.733C121.008 37.7121 121.003 37.6771 121.003 37.6771C121.003 37.6771 125.978 28.3104 120.884 27.068C115.968 25.8698 107.45 35.0279 104.422 41.3984C102.344 45.7688 101.171 51.2707 104.735 52.5807C108.594 54 115.15 46.9044 116.691 44.8427C118.233 42.7801 120.157 39.3508 120.157 39.3508C120.157 39.3508 121.098 39.3008 121.612 39.2248C122.597 39.0788 123.058 38.957 123.058 38.957C123.058 38.957 122.42 40.6399 121.729 42.7734C120.443 46.7517 119.282 52.4439 123.914 52.7117C126.866 52.8811 131.196 47.5135 131.196 47.5135C131.196 47.5135 130.031 52.2862 133.862 52.7117C136.69 53.0254 140.805 48.6258 140.805 48.6258C140.805 48.6258 139.909 52.4163 142.776 52.7501C145.23 53.0363 148.714 50.1385 151.571 46.9503C154.691 43.4693 157.084 39.657 157.084 39.657H155.27C155.27 39.657 151.255 45.793 148.436 47.4351C146.122 48.7834 146.915 46.6232 147.617 45.491C148.391 44.2419 158.104 27.6303 158.104 27.6312L158.107 27.6303ZM118.43 39.1873C118.359 39.3517 117.055 41.6353 115.661 43.4309C114.158 45.3658 111.408 48.2778 109.755 47.662C107.171 46.6992 110.015 41.0296 111.874 38.2795C113.733 35.5294 113.945 35.3433 113.997 35.2716C114.049 35.1998 114.101 35.1339 114.147 35.219C114.192 35.3041 114.784 36.4338 115.952 37.4142C117.126 38.3988 118.254 38.9186 118.345 38.9512C118.437 38.9837 118.502 39.0229 118.43 39.1865V39.1873ZM119.592 37.1439C119.429 37.4176 119.312 37.4309 118.973 37.34C118.377 37.1773 115.905 36.0267 115.924 33.4743C115.942 30.987 119.423 28.5507 120.789 29.592C122.063 30.5632 121.454 33.0463 120.974 34.3129C120.494 35.5786 119.699 36.9645 119.592 37.1439ZM143.25 43.2966C142.563 44.2461 141.988 45.1039 141.469 45.7063C140.36 46.9954 139.637 47.5953 138.992 47.7538C138.667 47.8331 138.265 47.8139 137.998 47.6512C137.052 47.0713 137.715 44.8135 139.362 41.778C140.869 39.0037 142.611 36.2278 145.473 33.0321C148.348 29.8239 149.447 29.6696 150.252 29.7063C150.929 29.7355 151.025 30.4522 151.025 30.4522C151.025 30.4522 150.977 30.6182 150.869 30.806C149.92 32.4622 145.141 40.6858 143.249 43.2966H143.25ZM66.4341 47.3099C63.2764 45.345 59.2254 44.0842 54.5712 44.0434C42.5815 43.9382 29.527 49.8039 20.6851 49.8832C10.2565 49.9749 9.73694 41.8957 10.51 37.4593C12.1738 27.9015 18.9061 18.7834 23.2347 13.9758C27.5641 9.1681 32.1006 5.4376 35.8724 4.48391C39.6441 3.53022 39.2895 6.41883 38.8279 6.81349C38.3515 6.8235 37.4376 6.92696 36.9189 7.28825C36.1069 7.85229 35.0222 8.88524 34.9543 10.5231C34.8375 13.0463 38.0756 13.4885 40.4164 8.20523C42.0131 4.60156 39.4809 2.156 37.3779 1.9207C34.4936 1.59697 30.0855 2.60656 24.8239 6.01165C15.6663 11.9374 3.41727 25.0963 3.1049 39.6963C2.92675 48.025 8.32999 52.7117 15.7434 52.7117C23.1568 52.7117 33.2217 48.1401 43.0496 48.0233C49.1348 47.9708 53.0731 50.1185 55.0675 53.6162C55.0675 53.6162 57.0495 50.2962 61.4634 50.1185C65.8301 49.9416 70.6376 51.1739 74.5841 53.9674C73.2675 52.0517 69.5455 49.2457 66.4333 47.3099H66.4341Z" fill="#62748E"/><path d="M39.1296 14.5097C34.1033 13.2198 25.7561 21.8356 22.2387 28.8476C20.0695 33.1731 19.1183 38.609 22.9803 40.0233C26.8424 41.4376 33.3949 34.347 34.9361 32.2853C36.4772 30.2227 38.9995 26.0917 38.9995 26.0917C38.9995 26.0917 39.7734 25.9415 40.2805 25.823C40.7876 25.7046 41.6071 25.4693 41.6071 25.4693C41.6071 25.4693 40.6567 27.1747 39.7991 28.9227C38.7824 30.9953 36.0199 37.8948 41.3535 39.964C46.4493 41.9407 53.7037 33.6979 54.0848 33.5418C54.0848 33.5418 51.9255 39.1589 55.2796 40.0233C58.9602 40.9711 62.9938 36.2227 62.9938 36.2227C62.9938 36.2227 62.1445 39.7872 65.0123 40.1217C70.1479 40.72 79.2317 27.4926 79.2317 27.4926H77.4171C77.4171 27.4926 72.7944 33.4826 70.5713 34.72C68.3482 35.9574 69.1478 33.7588 69.7518 32.7759C70.5224 31.5252 80.3429 15.0012 80.3429 15.0012H75.1352L74.5311 15.9632C74.5311 15.9632 73.4581 14.3136 71.6642 14.4313C66.4449 14.7742 60.2346 23.1514 57.5036 26.8435C54.7734 30.5364 48.8829 37.5869 45.7815 36.3303C42.4017 34.9603 45.7624 28.6708 47.9856 24.9778C50.4059 20.9578 54.6955 16.9761 56.3916 16.9453C58.4788 16.9061 57.6594 18.8109 57.6594 18.8109C57.6594 18.8109 56.0991 18.6149 54.9681 20.0483C54.1677 21.0621 53.5048 22.5423 54.2654 23.3474C55.4942 24.6482 57.0943 23.3274 58.0496 21.8539C61.0284 17.2623 58.8492 14.8426 56.5093 14.4897C51.5245 13.7363 46.9324 20.1852 43.4416 22.5815C41.0196 24.2427 40.0079 24.1134 40.0079 24.1134C40.0079 24.1134 44.2097 15.813 39.1304 14.5089L39.1296 14.5097ZM61.6963 29.3583C63.2035 26.5832 65.2567 23.904 67.9289 20.5456C70.6011 17.1872 71.931 16.9152 72.7356 16.9519C73.4125 16.982 73.5086 17.6979 73.5086 17.6979C73.5086 17.6979 67.7027 27.8848 65.5964 30.7917C64.9087 31.7413 64.3204 32.5456 63.8017 33.1489C62.693 34.438 61.8877 35.0612 61.2662 35.2164C60.9414 35.2965 60.5387 35.2765 60.2711 35.113C59.3248 34.5331 60.0465 32.3929 61.6954 29.3583H61.6963ZM37.0556 26.0525C36.9835 26.216 35.3255 28.977 33.9318 30.7726C32.4304 32.7075 29.6555 35.6311 28.0024 35.0154C25.418 34.0525 28.1748 28.4221 30.0341 25.6728C31.8935 22.9227 32.1661 22.569 32.2191 22.498C32.2713 22.4255 32.3227 22.3595 32.3683 22.4455C32.4138 22.5306 33.0055 23.7555 34.2865 24.5798C35.5675 25.405 36.8808 25.7847 36.9719 25.8172C37.0631 25.8497 37.1285 25.8898 37.0564 26.0525H37.0556ZM39.2174 21.7546C38.7368 23.022 38.3076 23.8205 38.2189 24.0091C38.0764 24.3111 37.7193 24.2144 37.7193 24.2144C37.3125 24.196 34.1497 23.4693 34.168 20.9169C34.1854 18.4296 37.6679 15.9932 39.0326 17.0346C40.307 18.0058 39.698 20.4889 39.2174 21.7546ZM154.189 49.6837C153.885 49.5101 153.546 49.4242 153.174 49.4242C152.802 49.4242 152.464 49.511 152.16 49.6837C151.856 49.8572 151.617 50.0925 151.443 50.3921C151.269 50.6908 151.181 51.0162 151.181 51.3666C151.181 51.7171 151.268 52.0483 151.443 52.3454C151.617 52.6416 151.856 52.8769 152.16 53.0496C152.464 53.2231 152.802 53.3091 153.174 53.3091C153.546 53.3091 153.885 53.2223 154.189 53.0496C154.493 52.8769 154.731 52.6416 154.906 52.3454C155.08 52.0492 155.168 51.7229 155.168 51.3666C155.168 51.0103 155.081 50.6908 154.906 50.3921C154.732 50.0934 154.493 49.8572 154.189 49.6837ZM154.546 52.171C154.414 52.4079 154.228 52.594 153.991 52.73C153.753 52.8652 153.48 52.9328 153.174 52.9328C152.869 52.9328 152.596 52.8652 152.358 52.73C152.12 52.5948 151.936 52.4088 151.803 52.171C151.671 51.934 151.605 51.6653 151.605 51.3666C151.605 51.0679 151.671 50.8068 151.803 50.5698C151.935 50.3328 152.121 50.1468 152.362 50.0108C152.602 49.8748 152.873 49.808 153.174 49.808C153.476 49.808 153.747 49.8756 153.987 50.0108C154.228 50.1459 154.414 50.332 154.546 50.5698C154.677 50.8068 154.744 51.0729 154.744 51.3666C154.744 51.6603 154.677 51.934 154.546 52.171Z" fill="#62748E"/><path d="M153.923 51.3349C153.98 51.2423 154.008 51.1388 154.008 51.0253C154.008 50.8685 153.957 50.7375 153.856 50.6307C153.755 50.5239 153.619 50.4705 153.45 50.4705H152.439V52.2285H152.884V51.5877H153.223L153.633 52.2285H154.142L153.683 51.5451C153.787 51.4976 153.867 51.4275 153.923 51.3349ZM153.499 51.1496C153.466 51.1805 153.421 51.1955 153.365 51.1955H152.884V50.8543H153.365C153.421 50.8543 153.466 50.8701 153.499 50.9002C153.532 50.931 153.549 50.9728 153.549 51.0245C153.549 51.0762 153.532 51.1179 153.499 51.1488V51.1496Z" fill="#62748E"/></svg>