<svg xmlns="http://www.w3.org/2000/svg" width="64" height="64" viewBox="0 0 64 64" fill="none"><path d="M11.7 3.72243C9.45395 4.20572 7.75942 5.01231 6.39755 6.3585C3 9.71703 3 15.1224 3 25.9333V28.8C3 36.9081 3 40.9621 5.54817 43.4811C8.09634 46 12.1976 46 20.4 46H43.6C51.8024 46 55.9035 46 58.4518 43.4811C61 40.9621 61 36.9081 61 28.8V25.9333C61 15.1224 61 9.71703 57.6024 6.3585C54.205 3 48.7365 3 37.8 3H26.2C25.1873 3 24.2216 3 23.3 3.00267" stroke="#020618" stroke-width="5" stroke-linecap="round"/><path d="M43 61H21" stroke="#020618" stroke-width="5" stroke-linecap="round"/><path d="M32 46V61" stroke="#020618" stroke-width="5" stroke-linecap="round"/><path d="M61 35H43.6M3 35H32" stroke="#020618" stroke-width="5" stroke-linecap="round"/></svg>