<svg xmlns="http://www.w3.org/2000/svg" width="184" height="26" viewBox="0 0 184 26" fill="none"><path d="M32.3574 0.00244141L26.479 7.98133H58.5173C60.1374 7.98133 60.1172 8.59074 59.3253 9.66832C58.5213 10.758 57.176 12.6427 56.3558 13.7526C55.9397 14.3136 55.1882 15.3347 57.6769 15.3347H70.7791L74.6617 10.0638C77.0696 6.79882 74.8718 0.00647505 66.2622 0.00647505L32.3574 0.00244141Z" fill="#62748E"/><path d="M24.0994 25.9974L35.9087 9.96697H50.5623C52.1824 9.96697 52.1622 10.5804 51.3704 11.654L48.3806 15.7221C47.9645 16.2831 47.2131 17.3042 49.7018 17.3042H69.3288C67.7006 19.54 62.3999 25.9974 52.8975 25.9974H24.0994ZM91.7232 17.3001L85.3196 25.9974H68.4278L74.8314 17.3001H91.7232ZM117.596 15.3306H76.2859L87.5821 0.00244141H104.466L97.9935 8.79253H105.528L112.009 0.00244141H128.893L117.596 15.3306ZM116.146 17.3001L109.742 25.9974H92.8585L99.2621 17.3001H116.146ZM0 20.7306H24.8792L23.5217 22.575H0V20.7306ZM0 17.3001H27.4083L26.0468 19.1445H0V17.3001ZM0 24.1611H22.3541L21.0006 25.9974H0V24.1611ZM184 22.575H159.21L160.571 20.7306H184V22.575ZM184 25.9974H156.693L158.042 24.1611H184V25.9974ZM163.096 17.3001H184V19.1485H161.739L163.096 17.3001ZM152.277 0.00244141L140.981 15.3306H123.087L134.391 0.00244141H152.277ZM121.64 17.3001C121.64 17.3001 120.408 18.9871 119.806 19.7943C117.689 22.6597 119.56 25.9934 126.481 25.9934H153.598L160.002 17.3001H121.64Z" fill="#62748E"/></svg>