<svg xmlns="http://www.w3.org/2000/svg" width="166" height="46" viewBox="0 0 166 46" fill="none"><g clip-path="url(#clip0_56_680)"><path d="M164.978 40.0183C164.978 37.4617 163.165 35.5897 160.666 35.5897C158.172 35.5897 156.357 37.4617 156.357 40.0183C156.357 42.5707 158.172 44.4396 160.666 44.4396C163.165 44.4396 164.978 42.5676 164.978 40.0183ZM159.533 40.2454V43.138H158.599V36.7596H160.922C162.283 36.7596 162.907 37.3539 162.907 38.5124C162.907 39.2259 162.425 39.7912 161.803 39.8731V39.9001C162.343 39.9861 162.541 40.4674 162.652 41.3479C162.737 41.9183 162.85 42.9078 163.054 43.1401H161.948C161.69 42.5406 161.716 41.6922 161.518 40.9818C161.354 40.4414 161.066 40.2444 160.446 40.2444H159.539V40.2475L159.533 40.2454ZM160.692 39.4209C161.6 39.4209 161.859 38.9376 161.859 38.5113C161.859 38.0073 161.6 37.609 160.692 37.609H159.533V39.423H160.692V39.4209ZM155.328 40.0183C155.328 36.8685 157.83 34.7393 160.662 34.7393C163.503 34.7393 166.001 36.8685 166.001 40.0183C166.001 43.1619 163.504 45.2932 160.662 45.2932C157.83 45.2932 155.328 43.1619 155.328 40.0183Z" fill="#62748E"/><path d="M136.844 44.3732L130.695 37.4794L124.599 44.3732H111.774L124.309 30.2951L111.774 16.2129H125L131.211 23.0538L137.188 16.2129H149.951L137.479 30.236L150.124 44.3732H136.844ZM87.1463 44.3732V0.0117188H111.774V9.89979H97.5782V16.2129H111.774V25.7276H97.5782V34.4603H111.774V44.3732H87.1463Z" fill="#62748E"/><path d="M76.7528 0.0117188V18.1668H76.6377C74.3376 15.5242 71.4627 14.6032 68.1293 14.6032C61.2985 14.6032 56.1526 19.2486 54.3463 25.3853C52.2859 18.6221 46.973 14.4767 39.0964 14.4767C32.6983 14.4767 27.6478 17.3464 25.0095 22.0239V16.2118H11.7868V9.90083H26.2182V0.0137958H0V44.3732H11.7868V25.7276H23.5352C23.1734 27.1614 22.9925 28.6349 22.9968 30.1136C22.9968 39.3628 30.0672 45.8625 39.0943 45.8625C46.6825 45.8625 51.6873 42.2979 54.3318 35.8085H44.2299C42.8645 37.7615 41.8271 38.3381 39.0954 38.3381C35.929 38.3381 33.1963 35.5752 33.1963 32.304H53.7654C54.6576 39.6522 60.3845 45.988 68.2444 45.988C71.6349 45.988 74.7391 44.3214 76.6366 41.5055H76.7507V44.3794H87.1432V0.0137958H76.7528V0.0117188ZM33.5241 25.8603C34.1808 23.0414 36.3668 21.1994 39.0954 21.1994C42.0999 21.1994 44.1749 22.9843 44.7196 25.8603H33.5241ZM70.446 37.6225C66.6166 37.6225 64.2366 34.0558 64.2366 30.3304C64.2366 26.3478 66.3075 22.5218 70.446 22.5218C74.7401 22.5218 76.4509 26.3498 76.4509 30.3304C76.4509 34.1035 74.6395 37.6225 70.446 37.6225Z" fill="#62748E"/></g><defs><clipPath id="clip0_56_680"><rect width="166" height="46" fill="white"/></clipPath></defs></svg>