<svg xmlns="http://www.w3.org/2000/svg" width="64" height="64" viewBox="0 0 64 64" fill="none"><path d="M23.3176 26.2201H14.61" stroke="#020618" stroke-width="5" stroke-linecap="round"/><path d="M52.3427 37.8301H11.7075" stroke="#020618" stroke-width="5" stroke-linecap="round"/><path d="M46.5375 25.8176C46.7598 25.8176 46.9398 25.9977 46.9399 26.22C46.9399 26.4423 46.7598 26.6223 46.5375 26.6223C46.3153 26.6222 46.1352 26.4422 46.1352 26.22C46.1353 25.9978 46.3154 25.8177 46.5375 25.8176Z" fill="#020618" stroke="#020618" stroke-width="5"/><path d="M40.7326 45.0864H23.3176" stroke="#020618" stroke-width="5" stroke-linecap="round"/><path d="M34.9276 52.3427H23.3176" stroke="#020618" stroke-width="5" stroke-linecap="round"/><path d="M61.0502 32.0251C61.0502 40.2345 61.0502 44.3392 58.4998 46.8897C56.6384 48.7511 53.9492 49.2541 49.4402 49.3899M14.61 49.3899C10.1011 49.2541 7.41176 48.7511 5.55038 46.8897C3 44.3392 3 40.2345 3 32.0251C3 23.8155 3 19.7107 5.55038 17.1604C8.10076 14.61 12.2055 14.61 20.4151 14.61H43.6351C51.8446 14.61 55.9493 14.61 58.4998 17.1604C59.3699 18.0305 59.9432 19.0817 60.3208 20.415" stroke="#020618" stroke-width="5" stroke-linecap="round"/><path d="M49.39 14.61C49.2541 10.1011 48.7511 7.41176 46.8897 5.55038C44.3393 3 40.2346 3 32.0251 3C23.8156 3 19.7108 3 17.1604 5.55038C15.299 7.41176 14.7962 10.1011 14.6603 14.61M49.4402 40.7326V43.6351C49.4402 51.8446 49.4402 55.9493 46.8897 58.4998C45.0284 60.3612 42.3392 60.8642 37.8301 61M14.61 40.7326V43.6351C14.61 51.8446 14.61 55.9493 17.1604 58.4998C19.0218 60.3612 21.7112 60.8642 26.2201 61" stroke="#020618" stroke-width="5" stroke-linecap="round"/></svg>