<svg xmlns="http://www.w3.org/2000/svg" width="57" height="64" viewBox="0 0 57 64" fill="none"><path d="M34.2309 28.282C34.2309 31.5675 31.5677 34.2307 28.2822 34.2307C24.9967 34.2307 22.3335 31.5675 22.3335 28.282C22.3335 24.9966 24.9967 22.3333 28.2822 22.3333" stroke="#020618" stroke-width="5" stroke-linecap="round"/><path d="M53.564 17.8718C53.564 19.5145 52.2323 20.8462 50.5896 20.8462C48.9469 20.8462 47.6152 19.5145 47.6152 17.8718C47.6152 16.2291 48.9469 14.8975 50.5896 14.8975C52.2323 14.8975 53.564 16.2291 53.564 17.8718Z" stroke="#020618" stroke-width="5"/><path d="M53.564 43.1539C53.564 44.7966 52.2323 46.1282 50.5896 46.1282C48.9469 46.1282 47.6152 44.7966 47.6152 43.1539C47.6152 41.5111 48.9469 40.1795 50.5896 40.1795C52.2323 40.1795 53.564 41.5111 53.564 43.1539Z" stroke="#020618" stroke-width="5"/><path d="M8.94872 17.8718C8.94872 19.5145 7.61704 20.8462 5.97436 20.8462C4.33168 20.8462 3 19.5145 3 17.8718C3 16.2291 4.33168 14.8975 5.97436 14.8975C7.61704 14.8975 8.94872 16.2291 8.94872 17.8718Z" stroke="#020618" stroke-width="5"/><path d="M8.94872 43.1539C8.94872 44.7966 7.61704 46.1282 5.97436 46.1282C4.33168 46.1282 3 44.7966 3 43.1539C3 41.5111 4.33168 40.1795 5.97436 40.1795C7.61704 40.1795 8.94872 41.5111 8.94872 43.1539Z" stroke="#020618" stroke-width="5"/><path d="M28.282 3C29.9247 3 31.2563 4.33168 31.2563 5.97436C31.2563 7.61704 29.9247 8.94872 28.282 8.94872C26.6392 8.94872 25.3076 7.61704 25.3076 5.97436C25.3076 4.33168 26.6392 3 28.282 3Z" stroke="#020618" stroke-width="5"/><path d="M28.282 50.5897C29.9247 50.5897 31.2563 51.9213 31.2563 53.5641C31.2563 55.2068 29.9247 56.5384 28.282 56.5384C26.6392 56.5384 25.3076 55.2068 25.3076 53.5641C25.3076 51.9213 26.6392 50.5897 28.282 50.5897Z" stroke="#020618" stroke-width="5"/><path d="M47.6159 61L37.7012 43.1538" stroke="#020618" stroke-width="5" stroke-linecap="round"/><path d="M23.8205 34.2308L8.94873 61" stroke="#020618" stroke-width="5" stroke-linecap="round"/><path d="M24.0101 6.81645C26.673 5.36449 29.891 5.36449 32.5536 6.81645L46.8136 14.5919C49.6806 16.1554 51.4649 19.1603 51.4649 22.4261V37.1123C51.4649 40.3782 49.6806 43.3832 46.8136 44.9465L32.5536 52.7221C29.891 54.1739 26.673 54.1739 24.0101 52.7221L9.75045 44.9465C6.8832 43.3832 5.09912 40.3782 5.09912 37.1123V22.4261C5.09912 19.1602 6.8832 16.1554 9.75045 14.5919L24.0101 6.81645Z" stroke="#020618" stroke-width="5"/></svg>