<svg xmlns="http://www.w3.org/2000/svg" width="65" height="64" viewBox="0 0 65 64" fill="none"><path d="M53.4548 53.4548L49.0029 49.0029" stroke="#020618" stroke-width="5" stroke-linecap="round"/><path d="M53.4548 11.9038L49.0029 16.3557" stroke="#020618" stroke-width="5" stroke-linecap="round"/><path d="M11.9038 53.4548L16.3557 49.0029" stroke="#020618" stroke-width="5" stroke-linecap="round"/><path d="M11.9038 11.9038L16.3557 16.3557" stroke="#020618" stroke-width="5" stroke-linecap="round"/><path d="M3 32.6794H8.93587" stroke="#020618" stroke-width="5" stroke-linecap="round"/><path d="M56.4224 32.6794H62.3582" stroke="#020618" stroke-width="5" stroke-linecap="round"/><path d="M32.6792 8.9366V3.00073" stroke="#020618" stroke-width="5" stroke-linecap="round"/><path d="M27.1036 39.6956C23.6263 36.2184 23.6263 30.5808 27.1036 27.1038C30.5805 23.6265 36.2181 23.6265 39.6953 27.1038C41.0179 28.4263 41.9418 31.172 42.5787 34.0669C43.5311 38.3956 44.0075 40.5601 42.2837 42.2839C40.5599 44.0077 38.3954 43.5313 34.0666 42.5789C31.1717 41.942 28.4261 41.0181 27.1036 39.6956Z" stroke="#020618" stroke-width="5"/><path d="M23.7756 61C11.7343 57.218 3 45.9686 3 32.6794C3 16.2879 16.2879 3 32.6794 3C49.0707 3 62.3587 16.2879 62.3587 32.6794C62.3587 45.9686 53.6244 57.218 41.5832 61" stroke="#020618" stroke-width="5" stroke-linecap="round"/></svg>