<svg xmlns="http://www.w3.org/2000/svg" width="59" height="58" viewBox="0 0 59 58" fill="none"><path d="M13.1013 32.5209C13.8965 31.7415 13.8973 30.4769 13.103 29.6964C12.3087 28.9159 11.0202 28.9153 10.2249 29.6948L13.1013 32.5209ZM4.75488 32.5209C5.55012 31.7415 5.55091 30.4769 4.75664 29.6964C3.96235 28.9159 2.6738 28.9153 1.87856 29.6948L4.75488 32.5209ZM28.1 47.3523C28.8953 46.5729 28.8961 45.3083 28.1016 44.5278C27.3074 43.7473 26.019 43.7467 25.2237 44.5262L28.1 47.3523ZM28.1 55.5331C28.8953 54.7536 28.8961 53.489 28.1016 52.7088C27.3074 51.9283 26.019 51.9275 25.2237 52.7069L28.1 55.5331ZM25.46 42.5564C26.2548 41.7764 26.2548 40.5118 25.46 39.7318C24.6653 38.9519 23.3766 38.9519 22.5819 39.7318L25.46 42.5564ZM16.877 45.3304C16.0822 46.1103 16.0822 47.375 16.877 48.1549C17.6717 48.9349 18.9603 48.9349 19.755 48.1549L16.877 45.3304ZM17.9281 35.1737C18.7229 34.3938 18.7229 33.1294 17.9281 32.3494C17.1333 31.5695 15.8448 31.5695 15.05 32.3494L17.9281 35.1737ZM9.30582 37.9866C8.51107 38.7665 8.51107 40.0309 9.30582 40.8109C10.1006 41.5908 11.3892 41.5908 12.1839 40.8109L9.30582 37.9866ZM16.8519 43.6104C17.6554 42.8389 17.6697 41.5746 16.8839 40.7861C16.098 39.9973 14.8096 39.9832 14.006 40.7547L16.8519 43.6104ZM9.36709 45.2068C8.56352 45.978 8.5492 47.2426 9.33507 48.0311C10.1209 48.8196 11.4094 48.8337 12.213 48.0625L9.36709 45.2068ZM10.2249 29.6948L5.63443 34.194L8.51075 37.0205L13.1013 32.5209L10.2249 29.6948ZM4.33757 32.93L4.75488 32.5209L1.87856 29.6948L1.46123 30.1038L4.33757 32.93ZM4.33757 34.194C3.9811 33.8447 3.9811 33.2793 4.33757 32.93L1.46123 30.1038C-0.487077 32.0134 -0.487077 35.1106 1.46123 37.0205L4.33757 34.194ZM5.63443 34.194C5.27657 34.545 4.6954 34.545 4.33757 34.194L1.46123 37.0205C3.40818 38.9287 6.5638 38.9287 8.51075 37.0205L5.63443 34.194ZM25.2237 44.5262L20.6331 49.0257L23.5095 51.8519L28.1 47.3523L25.2237 44.5262ZM27.6827 55.9421L28.1 55.5331L25.2237 52.7069L24.8064 53.1159L27.6827 55.9421ZM20.6331 55.9421C22.5801 57.8506 25.7357 57.8506 27.6827 55.9421L24.8064 53.1159C24.4485 53.4667 23.8672 53.4667 23.5095 53.1159L20.6331 55.9421ZM20.6331 49.0257C18.6848 50.9353 18.6848 54.0325 20.6331 55.9421L23.5095 53.1159C23.153 52.7666 23.153 52.2012 23.5095 51.8519L20.6331 49.0257ZM22.5819 39.7318L16.877 45.3304L19.755 48.1549L25.46 42.5564L22.5819 39.7318ZM15.05 32.3494L9.30582 37.9866L12.1839 40.8109L17.9281 35.1737L15.05 32.3494ZM14.006 40.7547L9.36709 45.2068L12.213 48.0625L16.8519 43.6104L14.006 40.7547Z" fill="#020618"/><path d="M39.902 0.771785C38.8633 1.19282 38.3689 2.36059 38.7979 3.38009C39.2269 4.39959 40.4168 4.88475 41.4558 4.46374L39.902 0.771785ZM23.1923 31.6952C22.3963 32.4741 22.3944 33.7387 23.188 34.5197C23.9815 35.3008 25.2701 35.3029 26.066 34.524L23.1923 31.6952ZM30.8175 29.8751C31.6134 29.0964 31.6153 27.8318 30.8216 27.0508C30.0282 26.2695 28.7396 26.2676 27.9437 27.0465L30.8175 29.8751ZM35.8304 9.47407C36.6266 8.69528 36.6285 7.43074 35.8348 6.64962C35.0414 5.86851 33.7527 5.86659 32.9569 6.64536L35.8304 9.47407ZM50.932 20.0503L37.4463 33.245L40.3202 36.0735L53.8056 22.8791L50.932 20.0503ZM27.6498 33.245L24.4824 30.1456L21.6085 32.9744L24.776 36.0735L27.6498 33.245ZM46.0337 4.1145H47.3456V0.120116H46.0337V4.1145ZM54.2699 10.8833V12.167H58.3401V10.8833H54.2699ZM47.3456 4.1145C49.5148 4.1145 50.9375 4.1187 51.9906 4.25725C52.9859 4.38819 53.3413 4.60538 53.556 4.8154L56.4298 1.98672C55.3325 0.912973 53.9758 0.488291 52.5314 0.298292C51.1451 0.115908 49.4 0.120116 47.3456 0.120116V4.1145ZM58.3401 10.8833C58.3401 8.87372 58.3445 7.16508 58.1578 5.80702C57.9632 4.39093 57.528 3.06126 56.4298 1.98672L53.556 4.8154C53.7698 5.02458 53.9907 5.36988 54.1242 6.34086C54.2656 7.36991 54.2699 8.76046 54.2699 10.8833H58.3401ZM24.4824 30.1456C22.9483 28.6448 21.9459 27.6582 21.3018 26.8321C20.6935 26.0519 20.6009 25.6551 20.6009 25.3617H16.5306C16.5306 26.8835 17.1846 28.125 18.0695 29.2596C18.9186 30.3485 20.1561 31.5532 21.6085 32.9744L24.4824 30.1456ZM24.776 36.0735C26.2285 37.4947 27.4599 38.7053 28.5724 39.5361C29.7324 40.4018 30.9983 41.0393 32.5482 41.0393V37.045C32.2424 37.045 31.834 36.952 31.0368 36.3569C30.1924 35.7265 29.1838 34.7458 27.6498 33.245L24.776 36.0735ZM53.8056 22.8791C55.6299 21.0942 56.9698 19.8334 57.6729 18.1724L53.9142 16.6399C53.5942 17.3954 52.9921 18.0347 50.932 20.0503L53.8056 22.8791ZM54.2699 12.167C54.2699 15.0177 54.2335 15.8851 53.9142 16.6399L57.6729 18.1724C58.3762 16.5108 58.3401 14.691 58.3401 12.167H54.2699ZM46.0337 0.120116C43.4526 0.120116 41.5969 0.0849384 39.902 0.771785L41.4558 4.46374C42.2307 4.14967 43.1213 4.1145 46.0337 4.1145V0.120116ZM26.066 34.524L30.8175 29.8751L27.9437 27.0465L23.1923 31.6952L26.066 34.524ZM37.4463 33.245C36.2643 34.4015 35.3857 35.2597 34.6332 35.8972C33.8775 36.5377 33.3948 36.8266 33.0415 36.9542L34.4485 40.7022C35.4866 40.327 36.4098 39.6695 37.2935 38.9202C38.1809 38.1682 39.1759 37.1933 40.3202 36.0735L37.4463 33.245ZM33.0415 36.9542C32.8605 37.0197 32.7059 37.045 32.5482 37.045V41.0393C33.2103 41.0393 33.8404 40.9222 34.4485 40.7022L33.0415 36.9542ZM21.6085 17.7487C20.4914 18.8417 19.5163 19.7944 18.7574 20.6443C18.0022 21.4901 17.3362 22.3678 16.9358 23.3449L20.7122 24.8352C20.8567 24.4824 21.1667 24.0068 21.8186 23.2768C22.4669 22.5507 23.33 21.7048 24.4824 20.5774L21.6085 17.7487ZM16.9358 23.3449C16.6735 23.9852 16.5306 24.6531 16.5306 25.3617H20.6009C20.6009 25.1984 20.6302 25.0352 20.7122 24.8352L16.9358 23.3449ZM24.4824 20.5774L35.8304 9.47407L32.9569 6.64536L21.6085 17.7487L24.4824 20.5774Z" fill="#020618"/><path d="M18.4173 23.6918L19.8563 22.2796L19.8542 22.2775L18.4173 23.6918ZM28.2767 14.6424C29.2218 15.2394 30.4808 14.9714 31.0892 14.0439C31.6976 13.1164 31.4246 11.8806 30.4795 11.2836L28.2767 14.6424ZM11.6753 20.8849C12.7145 21.3051 13.9041 20.819 14.3322 19.7991C14.7604 18.7793 14.265 17.6119 13.2258 17.1917L11.6753 20.8849ZM17.3848 25.5028C18.1795 26.2828 19.4681 26.2828 20.2628 25.5028C21.0576 24.7229 21.0576 23.4585 20.2628 22.6785L17.3848 25.5028ZM18.7462 21.1934C17.9503 20.4146 16.6617 20.4166 15.8682 21.1977C15.0746 21.9788 15.0765 23.2433 15.8725 24.022L18.7462 21.1934ZM30.4795 11.2836L29.028 10.367L26.8252 13.7258L28.2767 14.6424L30.4795 11.2836ZM29.028 10.367C27.5988 9.46415 26.4304 8.72455 25.4218 8.19125C24.388 7.64442 23.3996 7.24604 22.2975 7.08622L21.7024 11.0377C22.1602 11.1041 22.6797 11.2785 23.4912 11.7076C24.3283 12.1503 25.3434 12.7898 26.8252 13.7258L29.028 10.367ZM12.1317 17.1659C13.4316 15.8941 14.8195 14.5367 16.0654 13.4213C16.6877 12.8641 17.2504 12.3894 17.7296 12.0269C18.2402 11.6406 18.5411 11.4711 18.6577 11.4236L17.0979 7.73421C16.4659 7.99155 15.8176 8.43 15.2448 8.86323C14.6405 9.3203 13.9855 9.87661 13.3222 10.4704C11.9969 11.6569 10.5419 13.081 9.25802 14.3371L12.1317 17.1659ZM22.2975 7.08622C20.5467 6.83228 18.7486 7.06206 17.0979 7.73421L18.6577 11.4236C19.6476 11.0206 20.702 10.8926 21.7024 11.0377L22.2975 7.08622ZM10.5434 20.4438L11.4167 20.7834L12.9161 17.07L12.0428 16.7304L10.5434 20.4438ZM11.4167 20.7834C11.5642 20.8408 11.6207 20.8628 11.6753 20.8849L13.2258 17.1917C13.1399 17.157 13.0538 17.1235 12.9161 17.07L11.4167 20.7834ZM9.25802 14.3371C7.3172 16.236 8.00189 19.4556 10.5434 20.4438L12.0428 16.7304C12.218 16.7985 12.272 17.0286 12.1317 17.1659L9.25802 14.3371ZM16.9783 25.1039L17.3848 25.5028L20.2628 22.6785L19.8563 22.2796L16.9783 25.1039ZM15.8725 24.022L16.9804 25.1061L19.8542 22.2775L18.7462 21.1934L15.8725 24.022Z" fill="#020618"/><path d="M34.3923 39.4648L32.9531 40.8769C32.9846 40.9078 33.0171 40.9376 33.0505 40.9664L34.3923 39.4648ZM46.9278 27.3775C46.3167 26.4516 45.0569 26.1872 44.1134 26.7866C43.1699 27.386 42.9002 28.6227 43.5113 29.5486L46.9278 27.3775ZM41.4699 45.6845C41.0539 44.6601 39.87 44.1606 38.8259 44.569C37.782 44.9773 37.273 46.1391 37.6892 47.1638L41.4699 45.6845ZM34.2567 42.0041C35.1016 42.7314 36.3876 42.6486 37.1286 41.8191C37.8694 40.9898 37.785 39.7279 36.94 39.0006L34.2567 42.0041ZM35.1828 37.4159C34.388 36.6359 33.0994 36.6359 32.3046 37.4159C31.5098 38.1959 31.5098 39.4605 32.3046 40.2405L35.1828 37.4159ZM43.5113 29.5486L44.448 30.9685L47.8645 28.7976L46.9278 27.3775L43.5113 29.5486ZM40.9326 45.3288L40.7386 45.5184L43.6125 48.3469L43.8065 48.1573L40.9326 45.3288ZM44.448 30.9685C45.4047 32.4187 46.0581 33.4114 46.5105 34.23C46.9487 35.0238 47.1262 35.5303 47.1937 35.9755L51.2194 35.3881C51.0558 34.3072 50.6477 33.3387 50.0887 32.3265C49.5433 31.3394 48.7874 30.1959 47.8645 28.7976L44.448 30.9685ZM43.8065 48.1573C45.0902 46.9012 46.5457 45.4776 47.7584 44.1808C48.3654 43.5318 48.9339 42.8909 49.4011 42.2994C49.844 41.7392 50.2925 41.1041 50.5563 40.4844L46.8 38.9458C46.7522 39.0584 46.5797 39.3521 46.1846 39.852C45.8142 40.3206 45.3293 40.871 44.7597 41.4801C43.6198 42.6989 42.2324 44.057 40.9326 45.3288L43.8065 48.1573ZM47.1937 35.9755C47.3413 36.951 47.2111 37.9794 46.8 38.9458L50.5563 40.4844C51.2441 38.8669 51.4797 37.1046 51.2194 35.3881L47.1937 35.9755ZM36.94 39.0006L35.7339 37.9629L33.0505 40.9664L34.2567 42.0041L36.94 39.0006ZM40.7386 45.5184C40.8575 45.4023 41.0173 45.3748 41.1313 45.3972C41.246 45.4199 41.3994 45.5109 41.4699 45.6845L37.6892 47.1638C38.6577 49.5479 41.8004 50.1199 43.6125 48.3469L40.7386 45.5184ZM35.8313 38.0524L35.1828 37.4159L32.3046 40.2405L32.9531 40.8769L35.8313 38.0524Z" fill="#020618"/><path d="M37.4458 21.8605C38.2419 22.6393 39.5306 22.6374 40.324 21.8563C41.1177 21.0752 41.1155 19.8106 40.3196 19.0318L37.4458 21.8605ZM43.781 19.0318C42.9851 19.8106 42.9832 21.0752 43.7766 21.8563C44.5703 22.6374 45.8589 22.6393 46.6548 21.8605L43.781 19.0318ZM46.6548 12.8334C44.1112 10.3446 39.9897 10.3446 37.4458 12.8334L40.3196 15.6621C41.2748 14.7276 42.8258 14.7276 43.781 15.6621L46.6548 12.8334ZM37.4458 12.8334C34.8989 15.3255 34.8989 19.3684 37.4458 21.8605L40.3196 19.0318C39.368 18.1006 39.368 16.5933 40.3196 15.6621L37.4458 12.8334ZM46.6548 21.8605C49.202 19.3684 49.202 15.3255 46.6548 12.8334L43.781 15.6621C44.7329 16.5933 44.7329 18.1006 43.781 19.0318L46.6548 21.8605Z" fill="#020618"/></svg>