<svg xmlns="http://www.w3.org/2000/svg" width="64" height="64" viewBox="0 0 64 64" fill="none"><path d="M43.6 37.8C43.6 44.2064 38.4064 49.4 32 49.4C25.5935 49.4 20.4 44.2064 20.4 37.8V26.2C20.4 19.7935 25.5935 14.6 32 14.6C38.4064 14.6 43.6 19.7935 43.6 26.2" stroke="#020618" stroke-width="5" stroke-linecap="round"/><path d="M21.85 26.2H43.6" stroke="#020618" stroke-width="5" stroke-linecap="round"/><path d="M32 26.2V14.6" stroke="#020618" stroke-width="5" stroke-linecap="round"/><path d="M32 22.9863V8.36564C32 5.13574 29.3769 2.45637 26.2371 3.09475C12.9816 5.78963 3 17.5988 3 31.7587C3 37.1347 4.43881 42.1718 6.94928 46.5M44.6559 5.44152C54.3309 10.1807 61 20.1844 61 31.7587C61 47.9082 48.0161 61 32 61C26.7179 61 21.7655 59.5761 17.5 57.0879" stroke="#020618" stroke-width="5" stroke-linecap="round"/></svg>