<?xml version="1.0" encoding="UTF-8" standalone="no"?><svg xmlns="http://www.w3.org/2000/svg" xmlns:xlink="http://www.w3.org/1999/xlink" xmlns:serif="http://www.serif.com/" width="100%" height="100%" viewBox="0 0 1459 522" version="1.1" xml:space="preserve" style="fill-rule:evenodd;clip-rule:evenodd;stroke-linejoin:round;stroke-miterlimit:2;"><g transform="matrix(1,0,0,1,-920,-1014)"><g transform="matrix(1,0,0,1,-3509.17,-0.155565)"><g><g transform="matrix(0.809529,0,0,0.809529,531.637,216.95)"><path d="M4846.79,1629.21C4841.04,1629.21 4835.53,1628.1 4830.27,1625.87C4825,1623.65 4820.6,1620.61 4817.08,1616.75L4820.97,1611.52C4823.94,1614.86 4827.72,1617.58 4832.3,1619.67C4836.88,1621.77 4841.71,1622.81 4846.79,1622.81C4852.8,1622.81 4857.82,1621.4 4861.84,1618.59C4865.87,1615.77 4867.88,1612.13 4867.88,1607.68C4867.88,1606.05 4867.57,1604.54 4866.96,1603.14C4866.35,1601.75 4865.61,1600.56 4864.73,1599.56C4863.86,1598.56 4862.7,1597.62 4861.26,1596.75C4859.81,1595.88 4858.51,1595.18 4857.36,1594.66C4856.21,1594.14 4854.76,1593.62 4852.99,1593.1C4851.23,1592.58 4849.91,1592.22 4849.02,1592.02C4848.13,1591.81 4846.94,1591.56 4845.46,1591.27C4842.82,1590.71 4840.36,1590.05 4838.08,1589.29C4835.8,1588.53 4833.47,1587.52 4831.1,1586.26C4828.73,1585 4826.7,1583.6 4825.03,1582.06C4823.37,1580.52 4822,1578.63 4820.95,1576.38C4819.89,1574.14 4819.36,1571.68 4819.36,1569.01C4819.36,1562.7 4821.88,1557.59 4826.93,1553.68C4831.97,1549.77 4838.41,1547.81 4846.23,1547.81C4851.5,1547.81 4856.32,1548.71 4860.67,1550.51C4865.03,1552.31 4868.58,1554.77 4871.33,1557.88L4867.66,1563C4865.62,1560.48 4862.66,1558.38 4858.78,1556.71C4854.9,1555.04 4850.72,1554.21 4846.23,1554.21C4840.56,1554.21 4835.86,1555.57 4832.13,1558.3C4828.4,1561.03 4826.54,1564.48 4826.54,1568.68C4826.54,1576.43 4833.49,1581.68 4847.4,1584.42C4848.63,1584.68 4849.8,1584.95 4850.91,1585.23C4852.02,1585.51 4853.41,1585.89 4855.08,1586.37C4856.75,1586.85 4858.29,1587.42 4859.7,1588.07C4861.11,1588.72 4862.62,1589.47 4864.23,1590.32C4865.85,1591.17 4867.28,1592.17 4868.52,1593.33C4869.76,1594.47 4870.9,1595.72 4871.94,1597.05C4872.98,1598.39 4873.78,1599.94 4874.33,1601.7C4874.89,1603.46 4875.17,1605.32 4875.17,1607.29C4875.17,1611.48 4873.92,1615.26 4871.41,1618.61C4868.91,1621.97 4865.5,1624.58 4861.17,1626.43C4856.85,1628.29 4852.06,1629.21 4846.79,1629.21Z" style="fill:white;"/></g><g transform="matrix(0.809529,0,0,0.809529,531.637,216.95)"><path d="M4931.5,1629.21C4925.75,1629.21 4920.33,1628.16 4915.25,1626.07C4910.17,1623.97 4905.81,1621.13 4902.18,1617.53C4898.54,1613.93 4895.68,1609.62 4893.58,1604.59C4891.48,1599.57 4890.44,1594.2 4890.44,1588.48C4890.44,1580.88 4892.23,1573.97 4895.81,1567.76C4899.39,1561.54 4904.31,1556.67 4910.58,1553.12C4916.85,1549.58 4923.82,1547.81 4931.5,1547.81C4939.14,1547.81 4946.1,1549.58 4952.36,1553.12C4958.63,1556.67 4963.56,1561.54 4967.14,1567.76C4970.72,1573.97 4972.51,1580.88 4972.51,1588.48C4972.51,1594.2 4971.45,1599.57 4969.34,1604.59C4967.22,1609.62 4964.36,1613.93 4960.74,1617.53C4957.12,1621.13 4952.77,1623.97 4947.69,1626.07C4942.61,1628.16 4937.21,1629.21 4931.5,1629.21ZM4931.5,1622.37C4937.81,1622.37 4943.53,1620.9 4948.66,1617.97C4953.8,1615.04 4957.85,1610.98 4960.79,1605.79C4963.74,1600.6 4965.22,1594.83 4965.22,1588.48C4965.22,1582.14 4963.74,1576.38 4960.79,1571.21C4957.85,1566.03 4953.8,1561.98 4948.66,1559.05C4943.53,1556.12 4937.81,1554.65 4931.5,1554.65C4925.19,1554.65 4919.46,1556.12 4914.31,1559.05C4909.15,1561.98 4905.1,1566.03 4902.15,1571.21C4899.2,1576.38 4897.73,1582.14 4897.73,1588.48C4897.73,1593.23 4898.6,1597.71 4900.34,1601.92C4902.08,1606.13 4904.45,1609.73 4907.43,1612.72C4910.42,1615.7 4914,1618.06 4918.17,1619.78C4922.35,1621.51 4926.79,1622.37 4931.5,1622.37Z" style="fill:white;"/></g><g transform="matrix(0.809529,0,0,0.809529,531.637,216.95)"><path d="M5000.85,1621.2L5041.64,1621.2L5041.64,1627.82L4993.9,1627.82L4993.9,1549.2L5000.85,1549.2L5000.85,1621.2Z" style="fill:white;"/></g><g transform="matrix(0.809529,0,0,0.809529,531.637,216.95)"><path d="M5085.34,1629.21C5076.32,1629.21 5068.78,1626.22 5062.72,1620.23C5056.65,1614.24 5053.62,1606.77 5053.62,1597.83L5053.62,1549.2L5060.69,1549.2L5060.69,1597.83C5060.69,1604.81 5063.03,1610.64 5067.73,1615.33C5072.42,1620.02 5078.29,1622.37 5085.34,1622.37C5092.35,1622.37 5098.18,1620.02 5102.83,1615.33C5107.49,1610.64 5109.82,1604.81 5109.82,1597.83L5109.82,1549.2L5116.88,1549.2L5116.88,1597.83C5116.88,1603.73 5115.51,1609.07 5112.77,1613.86C5110.02,1618.64 5106.24,1622.4 5101.41,1625.12C5096.59,1627.85 5091.23,1629.21 5085.34,1629.21Z" style="fill:white;"/></g><g transform="matrix(0.809529,0,0,0.809529,531.637,216.95)"><path d="M5177.28,1629.21C5171.53,1629.21 5166.11,1628.16 5161.03,1626.07C5155.95,1623.97 5151.59,1621.13 5147.95,1617.53C5144.32,1613.93 5141.45,1609.62 5139.36,1604.59C5137.26,1599.57 5136.21,1594.2 5136.21,1588.48C5136.21,1580.88 5138,1573.97 5141.58,1567.76C5145.16,1561.54 5150.09,1556.67 5156.36,1553.12C5162.62,1549.58 5169.6,1547.81 5177.28,1547.81C5184.4,1547.81 5190.94,1549.4 5196.92,1552.57C5202.89,1555.74 5207.73,1560.05 5211.44,1565.5L5205.26,1569.23C5202.26,1564.71 5198.32,1561.14 5193.44,1558.55C5188.56,1555.95 5183.17,1554.65 5177.28,1554.65C5170.97,1554.65 5165.24,1556.12 5160.08,1559.05C5154.93,1561.98 5150.88,1566.03 5147.93,1571.21C5144.98,1576.38 5143.5,1582.14 5143.5,1588.48C5143.5,1593.23 5144.37,1597.71 5146.12,1601.92C5147.86,1606.13 5150.23,1609.73 5153.21,1612.72C5156.2,1615.7 5159.78,1618.06 5163.95,1619.78C5168.12,1621.51 5172.57,1622.37 5177.28,1622.37C5183.17,1622.37 5188.56,1621.07 5193.44,1618.47C5198.32,1615.88 5202.26,1612.32 5205.26,1607.79L5211.44,1611.52C5207.73,1616.97 5202.89,1621.28 5196.92,1624.46C5190.94,1627.63 5184.4,1629.21 5177.28,1629.21Z" style="fill:white;"/></g><g transform="matrix(0.809529,0,0,0.809529,531.637,216.95)"><rect x="5232.16" y="1549.2" width="6.955" height="78.621" style="fill:white;"/></g><g transform="matrix(0.809529,0,0,0.809529,531.637,216.95)"><path d="M5301.57,1629.21C5295.82,1629.21 5290.4,1628.16 5285.32,1626.07C5280.24,1623.97 5275.88,1621.13 5272.24,1617.53C5268.61,1613.93 5265.74,1609.62 5263.65,1604.59C5261.55,1599.57 5260.5,1594.2 5260.5,1588.48C5260.5,1580.88 5262.29,1573.97 5265.87,1567.76C5269.45,1561.54 5274.38,1556.67 5280.65,1553.12C5286.91,1549.58 5293.89,1547.81 5301.57,1547.81C5309.21,1547.81 5316.16,1549.58 5322.43,1553.12C5328.7,1556.67 5333.63,1561.54 5337.2,1567.76C5340.78,1573.97 5342.57,1580.88 5342.57,1588.48C5342.57,1594.2 5341.52,1599.57 5339.4,1604.59C5337.29,1609.62 5334.42,1613.93 5330.81,1617.53C5327.19,1621.13 5322.84,1623.97 5317.76,1626.07C5312.68,1628.16 5307.28,1629.21 5301.57,1629.21ZM5301.57,1622.37C5307.87,1622.37 5313.6,1620.9 5318.73,1617.97C5323.87,1615.04 5327.91,1610.98 5330.86,1605.79C5333.81,1600.6 5335.28,1594.83 5335.28,1588.48C5335.28,1582.14 5333.81,1576.38 5330.86,1571.21C5327.91,1566.03 5323.87,1561.98 5318.73,1559.05C5313.6,1556.12 5307.87,1554.65 5301.57,1554.65C5295.26,1554.65 5289.53,1556.12 5284.37,1559.05C5279.22,1561.98 5275.16,1566.03 5272.22,1571.21C5269.27,1576.38 5267.79,1582.14 5267.79,1588.48C5267.79,1593.23 5268.66,1597.71 5270.41,1601.92C5272.15,1606.13 5274.52,1609.73 5277.5,1612.72C5280.49,1615.7 5284.07,1618.06 5288.24,1619.78C5292.41,1621.51 5296.86,1622.37 5301.57,1622.37Z" style="fill:white;"/></g><g transform="matrix(0.809529,0,0,0.809529,531.637,216.95)"><path d="M5421.38,1549.2L5428.45,1549.2L5428.45,1627.82L5420.83,1627.82L5370.92,1560.38L5370.92,1627.82L5363.96,1627.82L5363.96,1549.2L5371.47,1549.2L5421.38,1616.64L5421.38,1549.2Z" style="fill:white;"/></g><g transform="matrix(0.809529,0,0,0.809529,531.637,216.95)"><path d="M5461.25,1621.2L5505.48,1621.2L5505.48,1627.82L5454.29,1627.82L5454.29,1549.2L5504.92,1549.2L5504.92,1555.82L5461.25,1555.82L5461.25,1584.98L5501.14,1584.98L5501.14,1591.6L5461.25,1591.6L5461.25,1621.2Z" style="fill:white;"/></g><g transform="matrix(0.809529,0,0,0.809529,531.637,216.95)"><path d="M5551.35,1629.21C5545.6,1629.21 5540.09,1628.1 5534.82,1625.87C5529.56,1623.65 5525.16,1620.61 5521.64,1616.75L5525.53,1611.52C5528.5,1614.86 5532.28,1617.58 5536.86,1619.67C5541.44,1621.77 5546.27,1622.81 5551.35,1622.81C5557.36,1622.81 5562.38,1621.4 5566.4,1618.59C5570.43,1615.77 5572.44,1612.13 5572.44,1607.68C5572.44,1606.05 5572.13,1604.54 5571.52,1603.14C5570.91,1601.75 5570.17,1600.56 5569.3,1599.56C5568.42,1598.56 5567.26,1597.62 5565.82,1596.75C5564.37,1595.88 5563.07,1595.18 5561.92,1594.66C5560.77,1594.14 5559.32,1593.62 5557.56,1593.1C5555.79,1592.58 5554.47,1592.22 5553.58,1592.02C5552.69,1591.81 5551.5,1591.56 5550.02,1591.27C5547.38,1590.71 5544.92,1590.05 5542.64,1589.29C5540.36,1588.53 5538.03,1587.52 5535.66,1586.26C5533.29,1585 5531.26,1583.6 5529.6,1582.06C5527.93,1580.52 5526.56,1578.63 5525.51,1576.38C5524.45,1574.14 5523.92,1571.68 5523.92,1569.01C5523.92,1562.7 5526.44,1557.59 5531.49,1553.68C5536.53,1549.77 5542.97,1547.81 5550.79,1547.81C5556.06,1547.81 5560.87,1548.71 5565.23,1550.51C5569.59,1552.31 5573.14,1554.77 5575.89,1557.88L5572.22,1563C5570.18,1560.48 5567.22,1558.38 5563.34,1556.71C5559.47,1555.04 5555.28,1554.21 5550.79,1554.21C5545.12,1554.21 5540.42,1555.57 5536.69,1558.3C5532.96,1561.03 5531.1,1564.48 5531.1,1568.68C5531.1,1576.43 5538.05,1581.68 5551.96,1584.42C5553.19,1584.68 5554.36,1584.95 5555.47,1585.23C5556.58,1585.51 5557.97,1585.89 5559.64,1586.37C5561.31,1586.85 5562.85,1587.42 5564.26,1588.07C5565.67,1588.72 5567.18,1589.47 5568.79,1590.32C5570.41,1591.17 5571.84,1592.17 5573.08,1593.33C5574.32,1594.47 5575.46,1595.72 5576.5,1597.05C5577.54,1598.39 5578.34,1599.94 5578.89,1601.7C5579.45,1603.46 5579.73,1605.32 5579.73,1607.29C5579.73,1611.48 5578.48,1615.26 5575.97,1618.61C5573.47,1621.97 5570.06,1624.58 5565.73,1626.43C5561.41,1628.29 5556.62,1629.21 5551.35,1629.21Z" style="fill:white;"/></g><g transform="matrix(0.809529,0,0,0.809529,531.637,216.95)"><path d="M5641.81,1621.2L5686.05,1621.2L5686.05,1627.82L5634.86,1627.82L5634.86,1549.2L5685.49,1549.2L5685.49,1555.82L5641.81,1555.82L5641.81,1584.98L5681.71,1584.98L5681.71,1591.6L5641.81,1591.6L5641.81,1621.2Z" style="fill:white;"/></g><g transform="matrix(0.809529,0,0,0.809529,531.637,216.95)"><path d="M5765.3,1549.2L5772.37,1549.2L5772.37,1627.82L5764.74,1627.82L5714.84,1560.38L5714.84,1627.82L5707.88,1627.82L5707.88,1549.2L5715.39,1549.2L5765.3,1616.64L5765.3,1549.2Z" style="fill:white;"/></g><g transform="matrix(0.809529,0,0,0.809529,531.637,216.95)"><path d="M5887.31,1549.2L5887.31,1555.82L5860.66,1555.82L5860.66,1627.82L5853.7,1627.82L5853.7,1555.82L5827.05,1555.82L5827.05,1549.2L5887.31,1549.2Z" style="fill:white;"/></g><g transform="matrix(0.809529,0,0,0.809529,531.637,216.95)"><path d="M5913.71,1621.2L5957.94,1621.2L5957.94,1627.82L5906.75,1627.82L5906.75,1549.2L5957.39,1549.2L5957.39,1555.82L5913.71,1555.82L5913.71,1584.98L5953.6,1584.98L5953.6,1591.6L5913.71,1591.6L5913.71,1621.2Z" style="fill:white;"/></g><g transform="matrix(0.809529,0,0,0.809529,531.637,216.95)"><path d="M6015.72,1629.21C6009.97,1629.21 6004.55,1628.16 5999.47,1626.07C5994.39,1623.97 5990.03,1621.13 5986.4,1617.53C5982.76,1613.93 5979.9,1609.62 5977.8,1604.59C5975.7,1599.57 5974.66,1594.2 5974.66,1588.48C5974.66,1580.88 5976.45,1573.97 5980.03,1567.76C5983.61,1561.54 5988.53,1556.67 5994.8,1553.12C6001.07,1549.58 6008.04,1547.81 6015.72,1547.81C6022.84,1547.81 6029.39,1549.4 6035.36,1552.57C6041.33,1555.74 6046.17,1560.05 6049.88,1565.5L6043.71,1569.23C6040.7,1564.71 6036.76,1561.14 6031.88,1558.55C6027.01,1555.95 6021.62,1554.65 6015.72,1554.65C6009.41,1554.65 6003.68,1556.12 5998.53,1559.05C5993.37,1561.98 5989.32,1566.03 5986.37,1571.21C5983.42,1576.38 5981.94,1582.14 5981.94,1588.48C5981.94,1593.23 5982.82,1597.71 5984.56,1601.92C5986.3,1606.13 5988.67,1609.73 5991.65,1612.72C5994.64,1615.7 5998.22,1618.06 6002.39,1619.78C6006.57,1621.51 6011.01,1622.37 6015.72,1622.37C6021.62,1622.37 6027.01,1621.07 6031.88,1618.47C6036.76,1615.88 6040.7,1612.32 6043.71,1607.79L6049.88,1611.52C6046.17,1616.97 6041.33,1621.28 6035.36,1624.46C6029.39,1627.63 6022.84,1629.21 6015.72,1629.21Z" style="fill:white;"/></g><g transform="matrix(0.809529,0,0,0.809529,531.637,216.95)"><path d="M6128.03,1549.2L6135.09,1549.2L6135.09,1627.82L6127.47,1627.82L6077.56,1560.38L6077.56,1627.82L6070.6,1627.82L6070.6,1549.2L6078.11,1549.2L6128.03,1616.64L6128.03,1549.2Z" style="fill:white;"/></g><g transform="matrix(0.809529,0,0,0.809529,531.637,216.95)"><path d="M6197.43,1629.21C6191.68,1629.21 6186.27,1628.16 6181.18,1626.07C6176.1,1623.97 6171.74,1621.13 6168.11,1617.53C6164.47,1613.93 6161.61,1609.62 6159.51,1604.59C6157.42,1599.57 6156.37,1594.2 6156.37,1588.48C6156.37,1580.88 6158.16,1573.97 6161.74,1567.76C6165.32,1561.54 6170.24,1556.67 6176.51,1553.12C6182.78,1549.58 6189.75,1547.81 6197.43,1547.81C6205.07,1547.81 6212.03,1549.58 6218.3,1553.12C6224.57,1556.67 6229.49,1561.54 6233.07,1567.76C6236.65,1573.97 6238.44,1580.88 6238.44,1588.48C6238.44,1594.2 6237.38,1599.57 6235.27,1604.59C6233.15,1609.62 6230.29,1613.93 6226.67,1617.53C6223.05,1621.13 6218.7,1623.97 6213.62,1626.07C6208.54,1628.16 6203.14,1629.21 6197.43,1629.21ZM6197.43,1622.37C6203.74,1622.37 6209.46,1620.9 6214.6,1617.97C6219.73,1615.04 6223.78,1610.98 6226.73,1605.79C6229.68,1600.6 6231.15,1594.83 6231.15,1588.48C6231.15,1582.14 6229.68,1576.38 6226.73,1571.21C6223.78,1566.03 6219.73,1561.98 6214.6,1559.05C6209.46,1556.12 6203.74,1554.65 6197.43,1554.65C6191.13,1554.65 6185.4,1556.12 6180.24,1559.05C6175.08,1561.98 6171.03,1566.03 6168.08,1571.21C6165.13,1576.38 6163.66,1582.14 6163.66,1588.48C6163.66,1593.23 6164.53,1597.71 6166.27,1601.92C6168.02,1606.13 6170.38,1609.73 6173.37,1612.72C6176.35,1615.7 6179.93,1618.06 6184.11,1619.78C6188.28,1621.51 6192.72,1622.37 6197.43,1622.37Z" style="fill:white;"/></g><g transform="matrix(0.809529,0,0,0.809529,531.637,216.95)"><path d="M6266.78,1621.2L6307.57,1621.2L6307.57,1627.82L6259.83,1627.82L6259.83,1549.2L6266.78,1549.2L6266.78,1621.2Z" style="fill:white;"/></g><g transform="matrix(0.809529,0,0,0.809529,531.637,216.95)"><path d="M6356.16,1629.21C6350.41,1629.21 6345,1628.16 6339.92,1626.07C6334.84,1623.97 6330.48,1621.13 6326.84,1617.53C6323.21,1613.93 6320.34,1609.62 6318.24,1604.59C6316.15,1599.57 6315.1,1594.2 6315.1,1588.48C6315.1,1580.88 6316.89,1573.97 6320.47,1567.76C6324.05,1561.54 6328.97,1556.67 6335.24,1553.12C6341.51,1549.58 6348.49,1547.81 6356.16,1547.81C6363.81,1547.81 6370.76,1549.58 6377.03,1553.12C6383.3,1556.67 6388.22,1561.54 6391.8,1567.76C6395.38,1573.97 6397.17,1580.88 6397.17,1588.48C6397.17,1594.2 6396.11,1599.57 6394,1604.59C6391.89,1609.62 6389.02,1613.93 6385.4,1617.53C6381.79,1621.13 6377.44,1623.97 6372.36,1626.07C6367.27,1628.16 6361.88,1629.21 6356.16,1629.21ZM6356.16,1622.37C6362.47,1622.37 6368.19,1620.9 6373.33,1617.97C6378.47,1615.04 6382.51,1610.98 6385.46,1605.79C6388.41,1600.6 6389.88,1594.83 6389.88,1588.48C6389.88,1582.14 6388.41,1576.38 6385.46,1571.21C6382.51,1566.03 6378.47,1561.98 6373.33,1559.05C6368.19,1556.12 6362.47,1554.65 6356.16,1554.65C6349.86,1554.65 6344.13,1556.12 6338.97,1559.05C6333.82,1561.98 6329.76,1566.03 6326.81,1571.21C6323.86,1576.38 6322.39,1582.14 6322.39,1588.48C6322.39,1593.23 6323.26,1597.71 6325.01,1601.92C6326.75,1606.13 6329.11,1609.73 6332.1,1612.72C6335.09,1615.7 6338.66,1618.06 6342.84,1619.78C6347.01,1621.51 6351.45,1622.37 6356.16,1622.37Z" style="fill:white;"/></g><g transform="matrix(0.809529,0,0,0.809529,531.637,216.95)"><path d="M6458.45,1587.48L6494.57,1587.48L6494.57,1589.76C6494.57,1597.22 6492.85,1603.96 6489.42,1609.99C6485.99,1616.02 6481.25,1620.73 6475.2,1624.12C6469.16,1627.52 6462.4,1629.21 6454.95,1629.21C6449.24,1629.21 6443.84,1628.16 6438.76,1626.07C6433.68,1623.97 6429.33,1621.13 6425.71,1617.53C6422.09,1613.93 6419.24,1609.62 6417.14,1604.59C6415.05,1599.57 6414,1594.2 6414,1588.48C6414,1580.88 6415.79,1573.97 6419.37,1567.76C6422.95,1561.54 6427.87,1556.67 6434.14,1553.12C6440.41,1549.58 6447.38,1547.81 6455.06,1547.81C6462.07,1547.81 6468.51,1549.32 6474.37,1552.35C6480.23,1555.37 6484.96,1559.48 6488.56,1564.67L6483.16,1568.79C6480.15,1564.37 6476.21,1560.89 6471.34,1558.35C6466.46,1555.81 6461.07,1554.54 6455.17,1554.54C6448.83,1554.54 6443.07,1556.02 6437.9,1558.97C6432.72,1561.91 6428.66,1565.99 6425.71,1571.18C6422.76,1576.37 6421.29,1582.14 6421.29,1588.48C6421.29,1593.23 6422.16,1597.71 6423.9,1601.92C6425.65,1606.13 6428.01,1609.74 6431,1612.74C6433.98,1615.75 6437.57,1618.12 6441.76,1619.87C6445.95,1621.61 6450.42,1622.48 6455.17,1622.48C6463.89,1622.48 6471.28,1619.78 6477.35,1614.38C6483.41,1608.99 6486.72,1602.12 6487.28,1593.77L6458.45,1593.77L6458.45,1587.48Z" style="fill:white;"/></g><g transform="matrix(0.809529,0,0,0.809529,531.637,216.95)"><path d="M6514.51,1540.86L6526.47,1527L6535.26,1527L6521.69,1540.86L6514.51,1540.86ZM6515.4,1627.82L6515.4,1549.2L6522.35,1549.2L6522.35,1627.82L6515.4,1627.82Z" style="fill:white;"/></g><g transform="matrix(0.809529,0,0,0.809529,531.637,216.95)"><path d="M6608.12,1627.82L6599.16,1606.29L6557.87,1606.29L6548.92,1627.82L6541.24,1627.82L6574.4,1549.2L6582.86,1549.2L6616.02,1627.82L6608.12,1627.82ZM6560.6,1599.78L6596.54,1599.78L6578.52,1556.71L6560.6,1599.78Z" style="fill:white;"/></g><g transform="matrix(1.13392,0,0,3.3309,-1837.22,-3655.77)"><path d="M6468,1466L6468,1488.43C6468,1495.21 6460.09,1501.72 6446,1506.51C6431.92,1511.31 6412.82,1514 6392.9,1514L6186,1514L6186,1443.57C6186,1436.79 6193.91,1430.28 6208,1425.49C6222.08,1420.69 6241.18,1418 6261.1,1418L6468,1418L6468,1450L6421,1450L6421,1434L6279.84,1434C6253.97,1434 6233,1441.14 6233,1449.95L6233,1498L6374.16,1498C6400.03,1498 6421,1490.86 6421,1482.05L6421,1482L6327,1482L6327,1466L6468,1466ZM5857,1514L5857,1418L6068.5,1418C6107.44,1418 6139,1428.75 6139,1442L6139,1450C6139,1463.26 6107.44,1474 6068.5,1474L5904,1474L5904,1514L5857,1514ZM6092,1446C6092,1439.37 6076.22,1434 6056.75,1434L5904,1434L5904,1458L6056.75,1458C6076.22,1458 6092,1452.63 6092,1446ZM6797,1498L6797,1514L6588.88,1514C6569.29,1514 6550.5,1511.35 6536.64,1506.63C6522.78,1501.92 6515,1495.52 6515,1488.85L6515,1443.15C6515,1436.48 6522.78,1430.08 6536.64,1425.37C6550.5,1420.65 6569.29,1418 6588.88,1418L6797,1418L6797,1434L6612.69,1434C6599.24,1434 6586.35,1435.82 6576.85,1439.05C6567.34,1442.29 6562,1446.68 6562,1451.25L6562,1480.75C6562,1485.32 6567.34,1489.71 6576.85,1492.95C6586.35,1496.18 6599.24,1498 6612.69,1498L6797,1498Z" style="fill:white;"/></g><g transform="matrix(0.384106,0,-0.292667,0.465435,3055.72,698.591)"><rect x="4455" y="678" width="289" height="476" style="fill:rgb(38,217,59);"/></g><g transform="matrix(-0.393361,0,0.200152,0.318307,6270.39,1019.89)"><rect x="4455" y="678" width="289" height="476" style="fill:rgb(38,217,59);"/></g></g></g></g></svg>