<svg xmlns="http://www.w3.org/2000/svg" width="168" height="32" viewBox="0 0 168 32" fill="none"><g clip-path="url(#clip0_56_662)"><path d="M17.1203 11.9528C17.1203 15.8131 15.2668 18.4276 10.5727 18.4276H9.08943V6.13336C9.61674 6.10334 10.1092 6.10334 10.5727 6.10334C15.0174 6.10292 17.1203 8.21892 17.1203 11.9528ZM12.302 23.7807C20.701 23.7807 26.0114 19.4222 26.0114 11.8297C26.011 3.4871 20.3299 0.5 11.0668 0.5C7.48443 0.5 3.16146 0.74822 0.0744629 1.12161V30.8784H9.08985V23.7807H12.302ZM133.094 11.9528C133.094 15.8131 131.243 18.4276 126.548 18.4276H125.069V6.13336C125.592 6.10334 126.085 6.10334 126.548 6.10334C130.993 6.10292 133.094 8.21892 133.094 11.9528ZM128.281 23.7807C136.674 23.7807 141.987 19.4222 141.987 11.8297C141.987 3.4871 136.307 0.5 127.043 0.5C123.461 0.5 119.136 0.74822 116.048 1.12161V30.8784H125.068V23.7807H128.281ZM153.719 8.71578C153.719 7.09791 155.326 6.34987 157.917 6.34987C160.759 6.34987 163.849 6.97275 165.947 7.84765L165.207 1.37152C162.859 0.873387 160.759 0.5 156.931 0.5C149.644 0.5 144.705 3.39576 144.705 9.46509C144.705 19.9204 158.787 17.8056 158.787 22.6609C158.787 24.5266 157.426 25.522 154.09 25.522C151.13 25.522 146.557 24.5266 143.84 23.1578L144.831 30.0073C147.546 31.0031 151.251 31.4996 154.216 31.4996C161.748 31.4996 167.925 29.0089 167.925 21.5378C167.925 11.5815 153.719 13.4472 153.719 8.71578ZM109.258 1.12161H100.243V30.8784H109.258V1.12161ZM72.698 1.12161H63.6818V30.8784H72.698V1.12161ZM88.3836 24.9004V1.12161H79.3674V30.8784H95.6723L97.0296 24.9004H88.3836ZM57.0128 1.12161H47.9966V12.9491H38.6096V1.12161H29.5917V30.8784H38.6092V19.174H47.9962V30.8784H57.0124L57.0128 1.12161Z" fill="#62748E"/></g><defs><clipPath id="clip0_56_662"><rect width="168" height="31" fill="white" transform="translate(0 0.5)"/></clipPath></defs></svg>