<svg xmlns="http://www.w3.org/2000/svg" width="42" height="34" viewBox="0 0 42 34" fill="none"><path d="M7.665 33.7299H12.88C16.695 33.7299 19.67 30.7549 19.67 26.9399V21.7249C19.67 17.9099 16.695 14.9349 12.88 14.9349H6.195C6.475 8.59977 7.945 7.65488 12.18 5.16988C13.44 4.43488 13.825 2.82499 13.09 1.56499C12.6 0.724985 11.725 0.269775 10.815 0.269775C10.36 0.269775 9.90503 0.374915 9.48503 0.619915C3.22003 4.32992 0.875 6.74495 0.875 17.5249V26.8699C0.875 30.6849 3.92 33.7299 7.665 33.7299Z" fill="#020618"/><path d="M29.1232 33.7299H34.3382C38.1532 33.7299 41.1282 30.7549 41.1282 26.9399V21.7249C41.1282 17.9099 38.1532 14.9349 34.3382 14.9349H27.6528C27.9328 8.59977 29.4032 7.65488 33.6382 5.16988C34.8982 4.43488 35.2828 2.82499 34.5478 1.56499C34.0578 0.724985 33.1832 0.269775 32.2732 0.269775C31.8182 0.269775 31.3632 0.374915 30.9432 0.619915C24.6782 4.32992 22.3332 6.74495 22.3332 17.5249V26.8699C22.3682 30.6849 25.4132 33.7299 29.1232 33.7299Z" fill="#020618"/></svg>