<svg xmlns="http://www.w3.org/2000/svg" width="56" height="53" viewBox="0 0 56 53" fill="none"><path fill-rule="evenodd" clip-rule="evenodd" d="M0 45.8136C0 44.8213 0.869842 44.017 1.94285 44.017H22.6665C23.7395 44.017 24.6094 44.8213 24.6094 45.8136C24.6094 46.8058 23.7395 47.6102 22.6665 47.6102H1.94285C0.869842 47.6102 0 46.8058 0 45.8136ZM31.0855 45.8136C31.0855 44.8213 31.9554 44.017 33.0284 44.017H53.7521C54.8251 44.017 55.6949 44.8213 55.6949 45.8136C55.6949 46.8058 54.8251 47.6102 53.7521 47.6102H33.0284C31.9554 47.6102 31.0855 46.8058 31.0855 45.8136Z" fill="#020618"/><path fill-rule="evenodd" clip-rule="evenodd" d="M27.8475 31.4407C28.8397 31.4407 29.6441 32.245 29.6441 33.2373V40.4237C29.6441 41.416 28.8397 42.2203 27.8475 42.2203C26.8552 42.2203 26.0508 41.416 26.0508 40.4237V33.2373C26.0508 32.245 26.8552 31.4407 27.8475 31.4407Z" fill="#020618"/><path fill-rule="evenodd" clip-rule="evenodd" d="M27.8475 42.547C26.0434 42.547 24.5809 44.0094 24.5809 45.8135C24.5809 47.6176 26.0434 49.0801 27.8475 49.0801C29.6515 49.0801 31.114 47.6176 31.114 45.8135C31.114 44.0094 29.6515 42.547 27.8475 42.547ZM20.661 45.8135C20.661 41.8446 23.8785 38.6271 27.8475 38.6271C31.8164 38.6271 35.0339 41.8446 35.0339 45.8135C35.0339 49.7825 31.8164 53 27.8475 53C23.8785 53 20.661 49.7825 20.661 45.8135Z" fill="#020618"/><path fill-rule="evenodd" clip-rule="evenodd" d="M9.71423 19.2238C6.49523 19.2238 3.88569 21.8782 3.88569 25.1526C3.88569 28.4271 6.49521 31.0814 9.71423 31.0814H33.0284C34.1014 31.0814 34.9712 31.9662 34.9712 33.0577C34.9712 34.1491 34.1014 35.034 33.0284 35.034H9.71423C4.34924 35.034 0 30.6101 0 25.1526C0 19.6953 4.34922 15.2712 9.71423 15.2712H45.9807C51.3458 15.2712 55.6949 19.6953 55.6949 25.1526C55.6949 30.61 51.3458 35.034 45.9807 35.034H43.3902C42.3172 35.034 41.4474 34.1491 41.4474 33.0577C41.4474 31.9662 42.3172 31.0814 43.3902 31.0814H45.9807C49.1998 31.0814 51.8092 28.4271 51.8092 25.1526C51.8092 21.8782 49.1998 19.2238 45.9807 19.2238H9.71423Z" fill="#020618"/><path fill-rule="evenodd" clip-rule="evenodd" d="M9.71423 3.95254C6.49523 3.95254 3.88569 6.60697 3.88569 9.88136C3.88569 13.1557 6.49523 15.8102 9.71423 15.8102H45.9807C49.1998 15.8102 51.8092 13.1558 51.8092 9.88136C51.8092 6.60695 49.1998 3.95254 45.9807 3.95254H27.8475C26.7745 3.95254 25.9046 3.06774 25.9046 1.97627C25.9046 0.884807 26.7745 0 27.8475 0H45.9807C51.3458 0 55.6949 4.42407 55.6949 9.88136C55.6949 15.3386 51.3458 19.7627 45.9807 19.7627H9.71423C4.34922 19.7627 0 15.3387 0 9.88136C0 4.42404 4.34922 0 9.71423 0H17.4856C18.5586 0 19.4285 0.884807 19.4285 1.97627C19.4285 3.06774 18.5586 3.95254 17.4856 3.95254H9.71423Z" fill="#020618"/><path fill-rule="evenodd" clip-rule="evenodd" d="M27.8475 9.88133C27.8475 8.88909 28.7323 8.08472 29.8237 8.08472H45.6339C46.7254 8.08472 47.6102 8.88909 47.6102 9.88133C47.6102 10.8736 46.7254 11.6779 45.6339 11.6779H29.8237C28.7323 11.6779 27.8475 10.8736 27.8475 9.88133Z" fill="#020618"/><path fill-rule="evenodd" clip-rule="evenodd" d="M27.8475 25.1526C27.8475 24.1603 28.7323 23.356 29.8237 23.356H45.6339C46.7254 23.356 47.6102 24.1603 47.6102 25.1526C47.6102 26.1448 46.7254 26.9492 45.6339 26.9492H29.8237C28.7323 26.9492 27.8475 26.1448 27.8475 25.1526Z" fill="#020618"/><path d="M12.1271 11.6779C13.3674 11.6779 14.3729 10.6725 14.3729 9.43216C14.3729 8.19186 13.3674 7.1864 12.1271 7.1864C10.8868 7.1864 9.88135 8.19186 9.88135 9.43216C9.88135 10.6725 10.8868 11.6779 12.1271 11.6779Z" fill="#020618"/><path d="M12.1271 27.8475C13.3674 27.8475 14.3729 26.6409 14.3729 25.1526C14.3729 23.6642 13.3674 22.4576 12.1271 22.4576C10.8868 22.4576 9.88135 23.6642 9.88135 25.1526C9.88135 26.6409 10.8868 27.8475 12.1271 27.8475Z" fill="#020618"/></svg>