<svg xmlns="http://www.w3.org/2000/svg" width="56" height="62" viewBox="0 0 56 62" fill="none"><path d="M39.4 29.74L29.88 22.6C28.8843 21.8534 27.5157 21.8534 26.52 22.6L17 29.74M33.8 36.74L28.2 32.54L22.6 36.74" stroke="#020618" stroke-width="5" stroke-linecap="round" stroke-linejoin="round"/><path d="M3 26.5668C3 17.6134 3 13.1368 4.05706 11.6307C5.11408 10.1247 9.3233 8.68389 17.7417 5.80221L19.3456 5.25322C23.734 3.75107 25.9281 3 28.2 3C30.4719 3 32.666 3.75107 37.0544 5.25322L38.6583 5.80221C47.0768 8.68389 51.286 10.1247 52.343 11.6307C53.4 13.1368 53.4 17.6134 53.4 26.5668C53.4 27.9189 53.4 29.3855 53.4 30.9759C53.4 37.9896 51.057 43.3995 47.8 47.5315M3.53995 36.6C5.94073 48.6355 15.8139 54.8361 22.316 57.6764C24.336 58.5587 25.346 59 28.2 59C31.054 59 32.064 58.5587 34.0839 57.6764C35.7029 56.9692 37.5307 56.0538 39.4 54.8918" stroke="#020618" stroke-width="5" stroke-linecap="round"/></svg>