<svg xmlns="http://www.w3.org/2000/svg" width="51" height="61" viewBox="0 0 51 61" fill="none"><path d="M47.8024 27.4065C47.8024 17.7921 47.8024 12.9848 44.8155 9.99792C42.1052 7.28762 37.896 7.03665 29.9563 7.01343M47.8024 37.6043C47.8024 47.2191 47.8024 52.0263 44.8155 55.0133C41.8288 57.9999 37.0213 57.9999 27.4068 57.9999C17.7922 57.9999 12.985 57.9999 9.99809 55.0133C7.01123 52.0263 7.01123 47.2191 7.01123 37.6043V29.9585" stroke="#020618" stroke-width="5" stroke-linecap="round"/><mask id="path-2-inside-1_134_138" fill="white"><path d="M3.7736 14.1495L2.36134 15.4385C2.72361 15.8354 3.23621 16.0615 3.7736 16.0615C4.31103 16.0615 4.82362 15.8354 5.1859 15.4385L3.7736 14.1495ZM7.0474 13.3989C7.75931 12.6189 7.70412 11.4095 6.92414 10.6976C6.14413 9.98571 4.93473 10.0409 4.22284 10.8209L7.0474 13.3989ZM3.32439 10.8209C2.61248 10.0409 1.40307 9.98571 0.623095 10.6976C-0.156884 11.4095 -0.21208 12.6189 0.499803 13.3989L3.32439 10.8209ZM22.9955 10.0703L24.4079 8.78133C24.0457 8.3844 23.533 8.15824 22.9955 8.15824C22.4581 8.15824 21.9456 8.3844 21.5834 8.78133L22.9955 10.0703ZM19.7218 10.8209C19.0099 11.6009 19.0651 12.8103 19.8451 13.5222C20.6251 14.2341 21.8345 14.1789 22.5463 13.3989L19.7218 10.8209ZM23.4448 13.3989C24.1568 14.1789 25.3663 14.2341 26.1462 13.5222C26.926 12.8103 26.9814 11.6009 26.2695 10.8209L23.4448 13.3989ZM8.48045 17.9894C7.77418 17.2043 6.5652 17.1404 5.7801 17.8467C4.99502 18.5529 4.93113 19.7619 5.63741 20.547L8.48045 17.9894ZM18.5847 6.57878C19.2452 7.40269 20.4487 7.53513 21.2726 6.87457C22.0965 6.21401 22.2289 5.01061 21.5684 4.18669L18.5847 6.57878ZM13.0812 0C6.72411 0 1.86152 5.58993 1.86152 12.1099H5.68569C5.68569 7.36569 9.15741 3.82418 13.0812 3.82418V0ZM1.86152 12.1099V14.1495H5.68569V12.1099H1.86152ZM5.1859 15.4385L7.0474 13.3989L4.22284 10.8209L2.36134 12.8604L5.1859 15.4385ZM5.1859 12.8604L3.32439 10.8209L0.499803 13.3989L2.36134 15.4385L5.1859 12.8604ZM13.6881 24.2198C20.0451 24.2198 24.9076 18.6299 24.9076 12.1099H21.0836C21.0836 16.8541 17.6118 20.3956 13.6881 20.3956V24.2198ZM24.9076 12.1099V10.0703H21.0836V12.1099H24.9076ZM21.5834 8.78133L19.7218 10.8209L22.5463 13.3989L24.4079 11.3593L21.5834 8.78133ZM21.5834 11.3593L23.4448 13.3989L26.2695 10.8209L24.4079 8.78133L21.5834 11.3593ZM5.63741 20.547C7.65213 22.7866 10.4999 24.2198 13.6881 24.2198V20.3956C11.6871 20.3956 9.84163 19.5025 8.48045 17.9894L5.63741 20.547ZM21.5684 4.18669C19.5387 1.65513 16.509 0 13.0812 0V3.82418C15.2292 3.82418 17.2027 4.85497 18.5847 6.57878L21.5684 4.18669Z"/></mask><path d="M3.7736 14.1495L2.36134 15.4385C2.72361 15.8354 3.23621 16.0615 3.7736 16.0615C4.31103 16.0615 4.82362 15.8354 5.1859 15.4385L3.7736 14.1495ZM7.0474 13.3989C7.75931 12.6189 7.70412 11.4095 6.92414 10.6976C6.14413 9.98571 4.93473 10.0409 4.22284 10.8209L7.0474 13.3989ZM3.32439 10.8209C2.61248 10.0409 1.40307 9.98571 0.623095 10.6976C-0.156884 11.4095 -0.21208 12.6189 0.499803 13.3989L3.32439 10.8209ZM22.9955 10.0703L24.4079 8.78133C24.0457 8.3844 23.533 8.15824 22.9955 8.15824C22.4581 8.15824 21.9456 8.3844 21.5834 8.78133L22.9955 10.0703ZM19.7218 10.8209C19.0099 11.6009 19.0651 12.8103 19.8451 13.5222C20.6251 14.2341 21.8345 14.1789 22.5463 13.3989L19.7218 10.8209ZM23.4448 13.3989C24.1568 14.1789 25.3663 14.2341 26.1462 13.5222C26.926 12.8103 26.9814 11.6009 26.2695 10.8209L23.4448 13.3989ZM8.48045 17.9894C7.77418 17.2043 6.5652 17.1404 5.7801 17.8467C4.99502 18.5529 4.93113 19.7619 5.63741 20.547L8.48045 17.9894ZM18.5847 6.57878C19.2452 7.40269 20.4487 7.53513 21.2726 6.87457C22.0965 6.21401 22.2289 5.01061 21.5684 4.18669L18.5847 6.57878ZM13.0812 0C6.72411 0 1.86152 5.58993 1.86152 12.1099H5.68569C5.68569 7.36569 9.15741 3.82418 13.0812 3.82418V0ZM1.86152 12.1099V14.1495H5.68569V12.1099H1.86152ZM5.1859 15.4385L7.0474 13.3989L4.22284 10.8209L2.36134 12.8604L5.1859 15.4385ZM5.1859 12.8604L3.32439 10.8209L0.499803 13.3989L2.36134 15.4385L5.1859 12.8604ZM13.6881 24.2198C20.0451 24.2198 24.9076 18.6299 24.9076 12.1099H21.0836C21.0836 16.8541 17.6118 20.3956 13.6881 20.3956V24.2198ZM24.9076 12.1099V10.0703H21.0836V12.1099H24.9076ZM21.5834 8.78133L19.7218 10.8209L22.5463 13.3989L24.4079 11.3593L21.5834 8.78133ZM21.5834 11.3593L23.4448 13.3989L26.2695 10.8209L24.4079 8.78133L21.5834 11.3593ZM5.63741 20.547C7.65213 22.7866 10.4999 24.2198 13.6881 24.2198V20.3956C11.6871 20.3956 9.84163 19.5025 8.48045 17.9894L5.63741 20.547ZM21.5684 4.18669C19.5387 1.65513 16.509 0 13.0812 0V3.82418C15.2292 3.82418 17.2027 4.85497 18.5847 6.57878L21.5684 4.18669Z" fill="#1C274C"/><path d="M3.7736 12.1099V9.60989H1.86152V12.1099V14.6099H3.7736V12.1099ZM4.22284 10.8209L2.53751 12.6674L5.36207 15.2454L7.0474 13.3989L8.73274 11.5524L5.90818 8.97437L4.22284 10.8209ZM0.499803 13.3989L2.18513 15.2454L5.00972 12.6674L3.32439 10.8209L1.63906 8.97436L-1.18553 11.5524L0.499803 13.3989ZM22.5463 13.3989L24.2317 11.5524L21.4072 8.97439L19.7218 10.8209L18.0365 12.6674L20.861 15.2454L22.5463 13.3989ZM26.2695 10.8209L24.5843 8.9743L21.7595 11.5523L23.4448 13.3989L25.13 15.2455L27.9548 12.6675L26.2695 10.8209ZM5.63741 20.547L7.30941 22.4056L10.1525 19.848L8.48045 17.9894L6.80845 16.1308L3.9654 18.6884L5.63741 20.547ZM21.5684 4.18669L20.0046 2.23616L17.0209 4.62825L18.5847 6.57878L20.1485 8.52931L23.1322 6.13722L21.5684 4.18669ZM1.86152 12.1099V14.6099H5.68569V12.1099V9.60989H1.86152V12.1099ZM13.0812 3.82418H15.5812V0H13.0812H10.5812V3.82418H13.0812ZM24.9076 12.1099V9.60989H21.0836V12.1099V14.6099H24.9076V12.1099ZM13.6881 20.3956H11.1881V24.2198H13.6881H16.1881V20.3956H13.6881ZM3.7736 14.1495L7.14426 10.4564L3.77357 7.37996L0.402914 10.4564L3.7736 14.1495ZM5.1859 15.4385L8.87894 18.8091L8.87896 18.8091L5.1859 15.4385ZM7.0474 13.3989L3.3544 10.0282L3.35434 10.0282L7.0474 13.3989ZM6.92414 10.6976L10.2949 7.00459L10.2947 7.00447L6.92414 10.6976ZM4.22284 10.8209L7.9159 14.1915L7.91591 14.1915L4.22284 10.8209ZM3.32439 10.8209L7.01745 7.45023L7.0174 7.45018L3.32439 10.8209ZM0.623095 10.6976L-2.74755 7.00453L-2.74762 7.00459L0.623095 10.6976ZM0.499803 13.3989L-3.19326 16.7695L-3.19323 16.7696L0.499803 13.3989ZM22.9955 10.0703L19.6248 13.7633L22.9953 16.8398L26.3661 13.7635L22.9955 10.0703ZM21.5834 8.78133L17.8903 5.41065L17.8903 5.41067L21.5834 8.78133ZM19.7218 10.8209L23.4149 14.1916L23.4149 14.1915L19.7218 10.8209ZM19.8451 13.5222L16.4744 17.2152L16.4745 17.2153L19.8451 13.5222ZM22.5463 13.3989L18.8534 10.0281L18.8531 10.0284L22.5463 13.3989ZM23.4448 13.3989L19.7516 16.7694L19.7521 16.77L23.4448 13.3989ZM26.1462 13.5222L29.517 17.215L29.5171 17.215L26.1462 13.5222ZM26.2695 10.8209L29.9628 7.45044L29.9625 7.45013L26.2695 10.8209ZM8.48045 17.9894L12.1977 14.6454L12.1976 14.6453L8.48045 17.9894ZM5.7801 17.8467L2.43611 14.1294L2.43605 14.1295L5.7801 17.8467ZM5.63741 20.547L9.35464 17.203L9.35457 17.2029L5.63741 20.547ZM18.5847 6.57878L14.6836 9.70637L14.6837 9.70641L18.5847 6.57878ZM21.5684 4.18669L17.6673 7.31427L17.6673 7.31428L21.5684 4.18669ZM1.86152 14.1495H-3.13848V19.1495H1.86152V14.1495ZM5.68569 14.1495V19.1495H10.6857V14.1495H5.68569ZM2.36134 12.8604L-1.33172 9.48979L-4.70236 13.1828L-1.00934 16.5535L2.36134 12.8604ZM5.1859 12.8604L8.55657 16.5535L12.2496 13.1828L8.87896 9.48979L5.1859 12.8604ZM24.9076 10.0703H29.9076V5.07033H24.9076V10.0703ZM21.0836 10.0703V5.07033H16.0836V10.0703H21.0836ZM24.4079 11.3593L28.1009 14.7301L31.4718 11.037L27.7786 7.66628L24.4079 11.3593ZM21.5834 11.3593L18.2127 7.66628L14.5197 11.0368L17.8902 14.7299L21.5834 11.3593ZM3.7736 14.1495L0.402914 10.4564L-1.00935 11.7454L2.36134 15.4385L5.73203 19.1315L7.14429 17.8425L3.7736 14.1495ZM2.36134 15.4385L-1.3317 18.8091C-0.0221254 20.244 1.83085 21.0615 3.7736 21.0615V16.0615V11.0615C4.64156 11.0615 5.46935 11.4268 6.05437 12.0678L2.36134 15.4385ZM3.7736 16.0615V21.0615C5.71635 21.0615 7.56933 20.244 8.87894 18.8091L5.1859 15.4385L1.49286 12.0678C2.07791 11.4268 2.90571 11.0615 3.7736 11.0615V16.0615ZM5.1859 15.4385L8.55655 11.7454L7.14426 10.4564L3.7736 14.1495L0.402947 17.8425L1.81524 19.1315L5.1859 15.4385ZM7.0474 13.3989L10.7404 16.7696C13.314 13.95 13.1144 9.57805 10.2949 7.00459L6.92414 10.6976L3.55343 14.3906C2.29386 13.241 2.20467 11.2878 3.3544 10.0282L7.0474 13.3989ZM6.92414 10.6976L10.2947 7.00447C7.47517 4.43117 3.10327 4.63058 0.529775 7.45024L4.22284 10.8209L7.91591 14.1915C6.76618 15.4512 4.81309 15.5403 3.55355 14.3907L6.92414 10.6976ZM3.32439 10.8209L7.0174 7.45018C4.44395 4.63066 0.0720591 4.43109 -2.74755 7.00453L0.623095 10.6976L3.99374 14.3907C2.73409 15.5403 0.781015 15.4512 -0.368617 14.1916L3.32439 10.8209ZM0.623095 10.6976L-2.74762 7.00459C-5.56713 9.57804 -5.76671 13.9499 -3.19326 16.7695L0.499803 13.3989L4.19287 10.0282C5.34255 11.2879 5.25336 13.241 3.99381 14.3906L0.623095 10.6976ZM22.9955 10.0703L26.3661 13.7635L27.7785 12.4745L24.4079 8.78133L21.0374 5.08815L19.625 6.37715L22.9955 10.0703ZM24.4079 8.78133L28.101 5.41065C26.7912 3.97559 24.938 3.15824 22.9955 3.15824V8.15824V13.1582C22.1279 13.1582 21.3001 12.7932 20.7149 12.152L24.4079 8.78133ZM22.9955 8.15824V3.15824C21.0525 3.15824 19.1997 3.97602 17.8903 5.41065L21.5834 8.78133L25.2764 12.152C24.6915 12.7928 23.8637 13.1582 22.9955 13.1582V8.15824ZM21.5834 8.78133L18.2126 12.4743L19.6248 13.7633L22.9955 10.0703L26.3663 6.3774L24.9541 5.08839L21.5834 8.78133ZM19.7218 10.8209L16.0288 7.45018C13.4553 10.2698 13.6549 14.6417 16.4744 17.2152L19.8451 13.5222L23.2158 9.82918C24.4754 10.9788 24.5646 12.9319 23.4149 14.1916L19.7218 10.8209ZM19.8451 13.5222L16.4745 17.2153C19.294 19.7885 23.666 19.5894 26.2396 16.7693L22.5463 13.3989L18.8531 10.0284C20.003 8.76838 21.9563 8.67962 23.2157 9.82906L19.8451 13.5222ZM23.4448 13.3989L19.7521 16.77C22.3253 19.5887 26.6971 19.7891 29.517 17.215L26.1462 13.5222L22.7753 9.82934C24.0354 8.67904 25.9883 8.76908 27.1374 10.0278L23.4448 13.3989ZM26.1462 13.5222L29.5171 17.215C32.3358 14.642 32.5363 10.2704 29.9628 7.45044L26.2695 10.8209L22.5763 14.1913C21.4264 12.9313 21.5163 10.9786 22.7752 9.8294L26.1462 13.5222ZM8.48045 17.9894L12.1976 14.6453C9.64455 11.8074 5.27421 11.5763 2.43611 14.1294L5.7801 17.8467L9.12409 21.5639C7.85619 22.7045 5.9038 22.6012 4.76328 21.3334L8.48045 17.9894ZM5.7801 17.8467L2.43605 14.1295C-0.401941 16.6826 -0.632924 21.053 1.92024 23.891L5.63741 20.547L9.35457 17.2029C10.4952 18.4708 10.392 20.4233 9.12415 21.5638L5.7801 17.8467ZM18.5847 6.57878L14.6837 9.70641C17.0715 12.6847 21.4217 13.1636 24.4002 10.7756L21.2726 6.87457L18.1449 2.97355C19.4756 1.90669 21.419 2.12068 22.4857 3.45116L18.5847 6.57878ZM21.2726 6.87457L24.4002 10.7756C27.3785 8.38776 27.8573 4.03757 25.4694 1.0591L21.5684 4.18669L17.6673 7.31428C16.6005 5.98365 16.8145 4.04025 18.1449 2.97355L21.2726 6.87457ZM13.0812 0V-5C3.52256 -5 -3.13848 3.29021 -3.13848 12.1099H1.86152H6.86152C6.86152 7.88964 9.92566 5 13.0812 5V0ZM5.68569 12.1099H10.6857C10.6857 9.72022 12.3089 8.82418 13.0812 8.82418V3.82418V-1.17582C6.00593 -1.17582 0.685692 5.01117 0.685692 12.1099H5.68569ZM1.86152 12.1099H-3.13848V14.1495H1.86152H6.86152V12.1099H1.86152ZM1.86152 14.1495V19.1495H5.68569V14.1495V9.14945H1.86152V14.1495ZM5.68569 14.1495H10.6857V12.1099H5.68569H0.685692V14.1495H5.68569ZM5.1859 15.4385L8.87896 18.8091L10.7405 16.7695L7.0474 13.3989L3.35434 10.0282L1.49284 12.0678L5.1859 15.4385ZM4.22284 10.8209L0.529783 7.45023L-1.33172 9.48979L2.36134 12.8604L6.05439 16.2311L7.9159 14.1915L4.22284 10.8209ZM2.36134 12.8604L-1.00934 16.5535L1.81522 19.1315L5.1859 15.4385L8.55657 11.7454L5.73201 9.16741L2.36134 12.8604ZM5.1859 12.8604L8.87896 9.48979L7.01745 7.45023L3.32439 10.8209L-0.368668 14.1915L1.49284 16.2311L5.1859 12.8604ZM0.499803 13.3989L-3.19323 16.7696L-1.3317 18.8091L2.36134 15.4385L6.05437 12.0678L4.19284 10.0282L0.499803 13.3989ZM2.36134 15.4385L5.73201 19.1315L8.55657 16.5535L5.1859 12.8604L1.81522 9.16741L-1.00934 11.7454L2.36134 15.4385ZM13.6881 24.2198V29.2198C23.2467 29.2198 29.9076 20.9295 29.9076 12.1099H24.9076H19.9076C19.9076 16.3302 16.8435 19.2198 13.6881 19.2198V24.2198ZM21.0836 12.1099H16.0836C16.0836 14.4996 14.4604 15.3956 13.6881 15.3956V20.3956V25.3956C20.7633 25.3956 26.0836 19.2086 26.0836 12.1099H21.0836ZM24.9076 12.1099H29.9076V10.0703H24.9076H19.9076V12.1099H24.9076ZM24.9076 10.0703V5.07033H21.0836V10.0703V15.0703H24.9076V10.0703ZM21.0836 10.0703H16.0836V12.1099H21.0836H26.0836V10.0703H21.0836ZM21.5834 8.78133L17.8903 5.41067L16.0288 7.45023L19.7218 10.8209L23.4149 14.1915L25.2764 12.152L21.5834 8.78133ZM22.5463 13.3989L26.2393 16.7696L28.1009 14.7301L24.4079 11.3593L20.715 7.98858L18.8534 10.0281L22.5463 13.3989ZM24.4079 11.3593L27.7786 7.66628L24.954 5.08827L21.5834 8.78133L18.2127 12.4744L21.0373 15.0524L24.4079 11.3593ZM21.5834 11.3593L17.8902 14.7299L19.7516 16.7694L23.4448 13.3989L27.1379 10.0283L25.2765 7.98878L21.5834 11.3593ZM26.2695 10.8209L29.9625 7.45013L28.1009 5.41057L24.4079 8.78133L20.715 12.1521L22.5766 14.1916L26.2695 10.8209ZM24.4079 8.78133L21.0373 5.08827L18.2127 7.66628L21.5834 11.3593L24.954 15.0524L27.7786 12.4744L24.4079 8.78133ZM5.63741 20.547L1.92017 23.891C4.78827 27.0792 8.94618 29.2198 13.6881 29.2198V24.2198V19.2198C12.0537 19.2198 10.516 18.494 9.35464 17.203L5.63741 20.547ZM13.6881 20.3956V15.3956C13.2367 15.3956 12.7025 15.2066 12.1977 14.6454L8.48045 17.9894L4.76323 21.3334C6.98075 23.7984 10.1374 25.3956 13.6881 25.3956V20.3956ZM21.5684 4.18669L25.4694 1.05912C22.5945 -2.52675 18.1845 -5 13.0812 -5V0V5C14.8336 5 16.4829 5.83701 17.6673 7.31427L21.5684 4.18669ZM13.0812 3.82418V8.82418C13.5591 8.82418 14.1506 9.04147 14.6836 9.70637L18.5847 6.57878L22.4857 3.45119C20.2547 0.668474 16.8992 -1.17582 13.0812 -1.17582V3.82418Z" fill="#020618" mask="url(#path-2-inside-1_134_138)"/><path d="M35.055 50.3516H19.7583" stroke="#020618" stroke-width="5" stroke-linecap="round"/></svg>