<svg xmlns="http://www.w3.org/2000/svg" width="64" height="64" viewBox="0 0 64 64" fill="none"><path d="M31.9998 32.0001C36.8047 32.0001 40.6998 28.105 40.6998 23.3001C40.6998 18.4952 36.8047 14.6001 31.9998 14.6001C27.1949 14.6001 23.2998 18.4952 23.2998 23.3001C23.2998 28.105 27.1949 32.0001 31.9998 32.0001Z" stroke="#020618" stroke-width="5"/><path d="M49.3106 55.2C48.8493 46.8146 46.2819 40.7 32 40.7C17.7184 40.7 15.151 46.8146 14.6895 55.2" stroke="#020618" stroke-width="5" stroke-linecap="round"/><path d="M17.5 6.87968C21.7655 4.41221 26.7179 3 32 3C48.0161 3 61 15.9837 61 32C61 48.0161 48.0161 61 32 61C15.9837 61 3 48.0161 3 32C3 26.7179 4.41221 21.7655 6.87968 17.5" stroke="#020618" stroke-width="5" stroke-linecap="round"/></svg>