<svg xmlns="http://www.w3.org/2000/svg" width="58" height="64" viewBox="0 0 58 64" fill="none"><path d="M37.8247 29.1L40.7247 46.5" stroke="#020618" stroke-width="5" stroke-linecap="round"/><path d="M20.4249 29.1L17.5249 46.5" stroke="#020618" stroke-width="5" stroke-linecap="round"/><path d="M20.4248 14.6V11.7C20.4248 6.89513 24.3198 3 29.1248 3C33.9298 3 37.8248 6.89513 37.8248 11.7V14.6" stroke="#020618" stroke-width="5" stroke-linecap="round"/><path d="M52.9729 33.5245C51.2756 24.4731 50.427 19.9474 47.2054 17.2737C43.9838 14.6 39.3795 14.6 30.1702 14.6H28.0788C18.8696 14.6 14.2651 14.6 11.0435 17.2737C7.82185 19.9474 6.97328 24.4731 5.27614 33.5245C2.88965 46.2523 1.69641 52.6164 5.17534 56.808C8.65424 61 15.1291 61 28.0788 61H30.1702C43.1199 61 49.5947 61 53.0736 56.808C55.092 54.3761 55.5377 51.2131 55.0902 46.5" stroke="#020618" stroke-width="5" stroke-linecap="round"/></svg>