<svg xmlns="http://www.w3.org/2000/svg" width="22" height="22" viewBox="0 0 22 22" fill="none"><path d="M18.7117 3.19006C17.7031 2.17452 16.5025 1.36952 15.1799 0.821878C13.8571 0.274231 12.4386 -0.00511289 11.0069 7.0843e-05C9.09292 0.00194084 7.21292 0.506344 5.55532 1.46276C3.89773 2.41918 2.52069 3.79405 1.56207 5.44967C0.603453 7.1053 0.0969431 8.98361 0.0932283 10.8964C0.0895272 12.8093 0.588772 14.6894 1.54096 16.3488L0 22L5.77861 20.4875C7.37427 21.3747 9.16722 21.8475 10.9931 21.8625C13.8958 21.8626 16.6809 20.7169 18.7422 18.6747C20.8037 16.6327 21.9745 13.8595 22 10.9588C21.9904 9.51134 21.6948 8.08002 21.1306 6.74691C20.5664 5.41378 19.7443 4.20508 18.7117 3.19006ZM11.0069 19.9788C9.3802 19.9799 7.78325 19.5429 6.38399 18.7138L6.05378 18.5075L2.62789 19.415L3.53596 16.0738L3.31582 15.73C2.14531 13.8417 1.70846 11.5899 2.08803 9.4012C2.46761 7.21255 3.63724 5.23902 5.37535 3.8545C7.11347 2.46996 9.2993 1.7706 11.5188 1.88889C13.7384 2.00716 15.8375 2.93489 17.4184 4.4963C19.1465 6.18506 20.1357 8.48862 20.1701 10.9038C20.1484 13.3181 19.1733 15.6262 17.4572 17.3258C15.7412 19.0253 13.4229 19.9789 11.0069 19.9788ZM15.9737 13.1863C15.6986 13.0488 14.364 12.3888 14.1163 12.3063C13.8687 12.2238 13.676 12.1688 13.4972 12.4438C13.2281 12.8124 12.9386 13.1658 12.6304 13.5025C12.4791 13.695 12.3139 13.7088 12.0388 13.5025C10.4699 12.883 9.16282 11.7417 8.33771 10.2713C8.04878 9.79005 8.61288 9.81755 9.13571 8.7863C9.17437 8.71191 9.19446 8.62941 9.19446 8.54568C9.19446 8.46194 9.17437 8.37944 9.13571 8.30505C9.13571 8.16754 8.51657 6.82004 8.29644 6.2838C8.0763 5.74755 7.85616 5.83005 7.6773 5.8163H7.14071C7.00168 5.81843 6.86472 5.85021 6.73896 5.90948C6.61321 5.96876 6.50157 6.05419 6.41151 6.16005C6.10279 6.46004 5.862 6.82269 5.70536 7.22352C5.54872 7.62436 5.47987 8.0541 5.50344 8.4838C5.58971 9.51244 5.97733 10.4928 6.61789 11.3025C7.79039 13.0568 9.39726 14.4778 11.2821 15.4275C12.2706 16.0042 13.4194 16.2454 14.5566 16.115C14.9352 16.0399 15.2939 15.8861 15.6091 15.6633C15.9245 15.4407 16.1893 15.1542 16.3865 14.8225C16.5692 14.4177 16.6267 13.9677 16.5516 13.53C16.4278 13.3925 16.2489 13.3238 15.9737 13.1863Z" fill="#020618"/></svg>